<svg version="1.1" id="Layer_1" xmlns="http://www.w3.org/2000/svg" xmlns:xlink="http://www.w3.org/1999/xlink" x="0px" y="0px"
	 width="100%" viewBox="0 0 1258 1080" enable-background="new 0 0 1258 1080" xml:space="preserve">
<path fill="#FFFFFF" opacity="1.000000" stroke="none" 
	d="
M867.000000,1081.000000 
	C860.303955,1081.000000 853.607910,1081.000000 846.443604,1080.535156 
	C845.832214,1074.073608 845.689026,1068.076782 845.592407,1061.663818 
	C844.015320,1025.385864 838.483948,990.122681 827.622803,955.912292 
	C797.989380,862.573486 742.960388,787.841003 662.045959,732.467468 
	C603.662048,692.512512 538.995239,669.415527 468.734772,662.254395 
	C432.997772,658.612000 397.234161,659.674988 361.699524,665.233948 
	C320.899231,671.616638 281.744659,683.591248 244.747635,701.922913 
	C151.341599,748.204651 83.324066,818.954956 41.736160,914.703003 
	C21.334827,961.673035 10.516239,1010.909973 8.243354,1062.505981 
	C8.074430,1068.966064 8.037215,1074.983032 8.000000,1081.000000 
	C5.666667,1081.000000 3.333334,1081.000000 1.000000,1081.000000 
	C1.000000,721.000000 1.000000,361.000031 1.000000,1.000049 
	C420.333282,1.000032 839.666565,1.000032 1259.000000,1.000016 
	C1259.000000,361.000000 1259.000000,721.000000 1258.528320,1080.532104 
	C1257.939697,1073.389526 1257.822754,1066.714722 1257.748779,1059.692505 
	C1257.736816,1058.883179 1257.681885,1058.421387 1257.718384,1057.542969 
	C1257.195312,1051.421265 1256.580688,1045.716187 1256.008789,1039.672852 
	C1255.991455,1038.885254 1255.931396,1038.436157 1255.951660,1037.591553 
	C1255.784058,1035.629517 1255.536011,1034.062622 1255.340088,1032.180664 
	C1255.264282,1031.243164 1255.136353,1030.620850 1255.065186,1029.558594 
	C1254.498779,1024.921753 1253.875610,1020.725037 1253.270752,1016.174194 
	C1253.119507,1014.892639 1252.949585,1013.965088 1252.850342,1012.641785 
	C1252.370117,1009.668335 1251.819336,1007.090637 1251.269287,1004.154297 
	C1251.082642,1002.859680 1250.895264,1001.923828 1250.774170,1000.614380 
	C1250.473267,998.504333 1250.105957,996.767883 1249.741333,994.643921 
	C1243.897583,967.392334 1236.118896,941.113098 1225.185913,915.863342 
	C1187.095581,827.894287 1126.335083,760.165588 1042.833740,713.107361 
	C990.651855,683.699646 934.515442,666.816101 874.781128,661.856628 
	C841.114502,659.061401 807.583313,660.090210 774.230835,665.256165 
	C738.908630,670.727173 704.790222,680.536377 672.072021,695.037659 
	C666.861572,697.346985 661.686707,699.736572 655.916931,702.351257 
	C657.779541,703.647522 658.828552,704.451538 659.946228,705.144714 
	C705.755615,733.554504 744.874207,769.366516 777.573792,812.139038 
	C813.918335,859.679199 839.484863,912.531982 854.037842,970.587952 
	C857.628113,984.910645 860.073914,999.520264 862.992859,1014.431763 
	C863.959717,1022.577820 864.979553,1030.290161 865.959351,1038.379028 
	C865.992920,1039.507324 866.066589,1040.259155 866.061890,1041.455200 
	C866.318848,1045.267578 866.654114,1048.635742 866.948730,1052.339111 
	C866.969604,1053.119385 867.031189,1053.564209 867.009888,1054.470825 
	C866.951355,1063.621704 866.975647,1072.310913 867.000000,1081.000000 
M510.010162,237.911865 
	C508.894226,248.639114 511.435181,250.629532 521.504822,246.915497 
	C521.660156,246.858200 521.813171,246.794556 522.771484,246.915222 
	C531.570557,245.265747 540.390991,243.721436 549.164551,241.945984 
	C570.733398,237.581192 591.194153,230.183365 608.721436,216.660645 
	C651.215149,183.875717 677.136108,140.224304 689.811523,88.605156 
	C695.721130,64.538948 702.914490,41.282444 717.778809,21.045023 
	C718.588379,19.942888 719.009338,18.555300 720.034058,16.418879 
	C716.414734,16.763050 713.615601,16.734011 710.955261,17.327320 
	C680.444824,24.131903 650.351196,32.106361 622.652954,47.304211 
	C595.014404,62.469326 570.570435,81.274887 552.150574,107.236755 
	C535.313599,130.967682 524.015686,157.208221 517.068115,185.348495 
	C512.883179,202.299286 509.743683,219.441376 510.010162,237.911865 
M973.461182,530.952698 
	C1006.355042,495.316742 1022.489075,453.001984 1022.669250,404.753174 
	C1022.756897,381.290741 1018.193665,358.454315 1009.142456,336.669250 
	C974.472351,253.222839 887.315674,206.772263 797.074402,227.589462 
	C699.488770,250.100891 638.579529,348.233154 660.413391,445.909851 
	C681.593994,540.664307 773.491089,602.730103 869.110840,586.734924 
	C909.859741,579.918396 944.539917,561.522705 973.461182,530.952698 
M466.444580,584.972595 
	C492.030212,579.079590 515.881348,569.240112 536.635925,552.920166 
	C595.251099,506.829224 618.873352,446.397400 607.280579,373.140106 
	C600.318542,329.145172 577.910217,293.021637 543.747620,264.275665 
	C538.555359,259.906677 534.113708,257.652893 526.550842,260.015747 
	C508.829651,265.552338 495.653625,256.316589 492.996948,237.808319 
	C492.541321,234.634262 490.729034,233.831055 488.252655,232.959000 
	C458.077454,222.332855 427.080078,220.080185 395.750793,225.348770 
	C353.739807,232.413651 318.129395,252.144104 290.160034,284.168976 
	C253.099594,326.603210 238.043182,376.264313 246.006790,432.261078 
	C253.850449,487.414307 282.236725,529.812561 328.334015,560.393616 
	C350.519012,575.111145 375.220306,583.558777 401.658752,587.269348 
	C423.168396,590.288269 444.412292,589.506958 466.444580,584.972595 
z"/>
<path fill="#FE952B" opacity="1.000000" stroke="none" 
	d="
M845.545837,1062.080078 
	C845.689026,1068.076782 845.832214,1074.073608 845.987671,1080.535156 
	C566.976685,1081.000000 287.953339,1081.000000 8.465013,1081.000000 
	C8.037215,1074.983032 8.074430,1068.966064 8.467362,1062.843140 
	C8.878033,1066.063843 8.953495,1069.390381 8.983877,1072.717285 
	C9.058251,1080.861084 8.256075,1079.975952 16.182213,1079.976440 
	C289.654785,1079.992188 563.127319,1079.995117 836.599915,1079.999756 
	C838.099731,1079.999756 839.613098,1079.868408 841.096619,1080.023438 
	C844.237366,1080.351318 845.099854,1078.901001 845.068237,1075.947510 
	C845.018799,1071.327271 845.366394,1066.702759 845.545837,1062.080078 
z"/>
<path fill="#FCCC45" opacity="1.000000" stroke="none" 
	d="
M867.468628,1081.000000 
	C866.975647,1072.310913 866.951355,1063.621704 867.278442,1054.741821 
	C868.081665,1060.984009 869.056763,1067.436035 868.822205,1073.843872 
	C868.629578,1079.107178 870.386963,1080.109009 875.303101,1080.102173 
	C977.102783,1079.960083 1078.902710,1079.994995 1180.702515,1079.994995 
	C1204.361328,1079.994995 1228.020874,1079.909790 1251.678467,1080.077637 
	C1255.700806,1080.106079 1257.310669,1079.171265 1257.107788,1074.853271 
	C1256.876831,1069.935669 1257.470459,1064.979492 1257.705566,1060.040039 
	C1257.822754,1066.714722 1257.939697,1073.389526 1258.028320,1080.532104 
	C1127.979126,1081.000000 997.958191,1081.000000 867.468628,1081.000000 
z"/>
<path fill="#FF7B04" opacity="1.000000" stroke="none" 
	d="
M845.592407,1061.663818 
	C845.366394,1066.702759 845.018799,1071.327271 845.068237,1075.947510 
	C845.099854,1078.901001 844.237366,1080.351318 841.096619,1080.023438 
	C839.613098,1079.868408 838.099731,1079.999756 836.599915,1079.999756 
	C563.127319,1079.995117 289.654785,1079.992188 16.182213,1079.976440 
	C8.256075,1079.975952 9.058251,1080.861084 8.983877,1072.717285 
	C8.953495,1069.390381 8.878033,1066.063843 8.599071,1062.400024 
	C10.516239,1010.909973 21.334827,961.673035 41.736160,914.703003 
	C83.324066,818.954956 151.341599,748.204651 244.747635,701.922913 
	C281.744659,683.591248 320.899231,671.616638 361.699524,665.233948 
	C397.234161,659.674988 432.997772,658.612000 468.734772,662.254395 
	C538.995239,669.415527 603.662048,692.512512 662.045959,732.467468 
	C742.960388,787.841003 797.989380,862.573486 827.622803,955.912292 
	C838.483948,990.122681 844.015320,1025.385864 845.592407,1061.663818 
z"/>
<path fill="#FFC020" opacity="1.000000" stroke="none" 
	d="
M1257.748657,1059.692505 
	C1257.470459,1064.979492 1256.876831,1069.935669 1257.107788,1074.853271 
	C1257.310669,1079.171265 1255.700806,1080.106079 1251.678467,1080.077637 
	C1228.020874,1079.909790 1204.361328,1079.994995 1180.702515,1079.994995 
	C1078.902710,1079.994995 977.102783,1079.960083 875.303101,1080.102173 
	C870.386963,1080.109009 868.629578,1079.107178 868.822205,1073.843872 
	C869.056763,1067.436035 868.081665,1060.984009 867.361328,1054.280029 
	C867.031189,1053.564209 866.969604,1053.119385 867.227783,1052.097168 
	C867.078369,1048.016846 866.609253,1044.513794 866.140198,1041.010864 
	C866.066589,1040.259155 865.992920,1039.507324 866.246338,1038.111084 
	C865.958313,1030.213867 865.380310,1022.957458 864.662048,1015.714844 
	C864.600647,1015.095215 863.606689,1014.568054 863.045898,1013.997986 
	C860.073914,999.520264 857.628113,984.910645 854.037842,970.587952 
	C839.484863,912.531982 813.918335,859.679199 777.573792,812.139038 
	C744.874207,769.366516 705.755615,733.554504 659.946228,705.144714 
	C658.828552,704.451538 657.779541,703.647522 655.916931,702.351257 
	C661.686707,699.736572 666.861572,697.346985 672.072021,695.037659 
	C704.790222,680.536377 738.908630,670.727173 774.230835,665.256165 
	C807.583313,660.090210 841.114502,659.061401 874.781128,661.856628 
	C934.515442,666.816101 990.651855,683.699646 1042.833740,713.107361 
	C1126.335083,760.165588 1187.095581,827.894287 1225.185913,915.863342 
	C1236.118896,941.113098 1243.897583,967.392334 1249.524780,994.903931 
	C1249.772949,997.363647 1250.240356,999.175781 1250.707764,1000.987976 
	C1250.895264,1001.923828 1251.082642,1002.859680 1251.189697,1004.620667 
	C1251.666016,1007.976440 1252.222900,1010.507019 1252.779785,1013.037598 
	C1252.949585,1013.965088 1253.119507,1014.892639 1253.191650,1016.672974 
	C1253.067505,1020.277710 1252.815796,1023.053528 1253.104858,1025.771851 
	C1253.260010,1027.231689 1254.343628,1028.592773 1255.008301,1029.998535 
	C1255.136353,1030.620850 1255.264282,1031.243164 1255.255127,1032.601685 
	C1255.369019,1034.887573 1255.620239,1036.437256 1255.871338,1037.986938 
	C1255.931396,1038.436157 1255.991455,1038.885254 1255.727051,1039.945312 
	C1256.144043,1046.357422 1256.885498,1052.158447 1257.626953,1057.959595 
	C1257.681885,1058.421387 1257.736816,1058.883179 1257.748657,1059.692505 
z"/>
<path fill="#FFC021" opacity="1.000000" stroke="none" 
	d="
M973.211487,531.205444 
	C944.539917,561.522705 909.859741,579.918396 869.110840,586.734924 
	C773.491089,602.730103 681.593994,540.664307 660.413391,445.909851 
	C638.579529,348.233154 699.488770,250.100891 797.074402,227.589462 
	C887.315674,206.772263 974.472351,253.222839 1009.142456,336.669250 
	C1018.193665,358.454315 1022.756897,381.290741 1022.669250,404.753174 
	C1022.489075,453.001984 1006.355042,495.316742 973.211487,531.205444 
z"/>
<path fill="#FF7B05" opacity="1.000000" stroke="none" 
	d="
M466.021729,585.025024 
	C444.412292,589.506958 423.168396,590.288269 401.658752,587.269348 
	C375.220306,583.558777 350.519012,575.111145 328.334015,560.393616 
	C282.236725,529.812561 253.850449,487.414307 246.006790,432.261078 
	C238.043182,376.264313 253.099594,326.603210 290.160034,284.168976 
	C318.129395,252.144104 353.739807,232.413651 395.750793,225.348770 
	C427.080078,220.080185 458.077454,222.332855 488.252655,232.959000 
	C490.729034,233.831055 492.541321,234.634262 492.996948,237.808319 
	C495.653625,256.316589 508.829651,265.552338 526.550842,260.015747 
	C534.113708,257.652893 538.555359,259.906677 543.747620,264.275665 
	C577.910217,293.021637 600.318542,329.145172 607.280579,373.140106 
	C618.873352,446.397400 595.251099,506.829224 536.635925,552.920166 
	C515.881348,569.240112 492.030212,579.079590 466.021729,585.025024 
z"/>
<path fill="#499934" opacity="1.000000" stroke="none" 
	d="
M510.221741,237.035065 
	C509.743683,219.441376 512.883179,202.299286 517.068115,185.348495 
	C524.015686,157.208221 535.313599,130.967682 552.150574,107.236755 
	C570.570435,81.274887 595.014404,62.469326 622.652954,47.304211 
	C650.351196,32.106361 680.444824,24.131903 710.955261,17.327320 
	C713.615601,16.734011 716.414734,16.763050 720.034058,16.418879 
	C719.009338,18.555300 718.588379,19.942888 717.778809,21.045023 
	C702.914490,41.282444 695.721130,64.538948 689.811523,88.605156 
	C677.136108,140.224304 651.215149,183.875717 608.721436,216.660645 
	C591.194153,230.183365 570.733398,237.581192 549.164551,241.945984 
	C540.390991,243.721436 531.570557,245.265747 522.400269,246.493820 
	C523.578857,244.356094 524.988159,242.482773 526.702271,240.950317 
	C534.617432,233.874039 542.888306,227.169754 550.469971,219.757629 
	C554.137695,216.171890 557.695129,214.524933 562.751770,214.953720 
	C574.250916,215.928787 585.197632,213.483978 595.607971,208.637634 
	C601.072327,206.093842 606.623840,203.597565 610.848450,198.187714 
	C596.061829,197.678116 582.696228,205.109940 568.173584,202.475662 
	C568.515198,201.570389 568.562134,201.209137 568.756348,200.965088 
	C579.385803,187.609756 589.980774,174.226196 600.737488,160.973953 
	C601.867432,159.581894 603.844788,158.576248 605.622864,158.062943 
	C614.218689,155.581543 623.035461,153.778854 631.476379,150.871704 
	C640.093384,147.903931 647.714233,142.914886 654.341431,136.372192 
	C639.997742,139.725098 626.263245,145.342560 610.750977,146.901810 
	C611.857544,144.543884 612.393372,142.971207 613.264648,141.613800 
	C620.171570,130.853241 627.451477,120.317459 633.981018,109.334602 
	C638.098572,102.408676 643.413818,99.776779 651.401672,99.810722 
	C660.269104,99.848404 668.192383,96.112244 676.006897,90.056389 
	C665.363037,90.455124 656.225769,95.133400 645.372070,93.581970 
	C658.569946,74.400612 673.498474,58.005051 689.037415,42.106842 
	C688.591614,41.668686 688.145813,41.230526 687.700012,40.792370 
	C674.928467,52.286892 662.156860,63.781414 649.385315,75.275940 
	C649.020081,75.124870 648.654846,74.973801 648.289612,74.822739 
	C650.534180,66.845192 652.778748,58.867653 655.023315,50.890114 
	C653.417236,51.278492 652.258423,51.894253 651.836975,52.838982 
	C648.476318,60.371803 644.394287,67.732430 642.247681,75.612808 
	C640.321960,82.682388 638.938782,89.414307 633.703003,95.146706 
	C628.251038,101.115746 623.822998,108.020256 618.950378,114.518066 
	C616.376465,117.950516 613.809204,121.387939 611.238892,124.823105 
	C610.635376,124.579559 610.031860,124.336014 609.428345,124.092461 
	C611.278931,109.693359 613.129456,95.294266 615.031433,80.495354 
	C614.070557,80.951141 613.667786,81.009430 613.525574,81.233261 
	C612.991699,82.073296 612.523926,82.957573 612.065125,83.842743 
	C603.854065,99.683044 600.781372,116.612267 600.866821,134.338791 
	C600.883118,137.717438 599.819275,141.677246 597.882812,144.390457 
	C589.125427,156.660629 579.893860,168.593155 570.768616,180.598297 
	C570.059814,181.530899 568.854065,182.085800 567.646484,182.990707 
	C562.112976,163.234528 567.175964,143.794373 566.309326,124.401093 
	C564.490601,126.230431 563.029480,128.046768 562.164734,130.112747 
	C553.868164,149.933502 551.611023,170.366486 555.926758,191.512115 
	C556.269653,193.192261 555.570801,195.782028 554.379456,196.968674 
	C544.362488,206.946060 534.242126,216.828751 523.880554,226.446548 
	C519.674927,230.350281 514.794922,233.527359 510.221741,237.035065 
z"/>
<path fill="#237C17" opacity="1.000000" stroke="none" 
	d="
M510.115967,237.473480 
	C514.794922,233.527359 519.674927,230.350281 523.880554,226.446548 
	C534.242126,216.828751 544.362488,206.946060 554.379456,196.968674 
	C555.570801,195.782028 556.269653,193.192261 555.926758,191.512115 
	C551.611023,170.366486 553.868164,149.933502 562.164734,130.112747 
	C563.029480,128.046768 564.490601,126.230431 566.309326,124.401093 
	C567.175964,143.794373 562.112976,163.234528 567.646484,182.990707 
	C568.854065,182.085800 570.059814,181.530899 570.768616,180.598297 
	C579.893860,168.593155 589.125427,156.660629 597.882812,144.390457 
	C599.819275,141.677246 600.883118,137.717438 600.866821,134.338791 
	C600.781372,116.612267 603.854065,99.683044 612.065125,83.842743 
	C612.523926,82.957573 612.991699,82.073296 613.525574,81.233261 
	C613.667786,81.009430 614.070557,80.951141 615.031433,80.495354 
	C613.129456,95.294266 611.278931,109.693359 609.428345,124.092461 
	C610.031860,124.336014 610.635376,124.579559 611.238892,124.823105 
	C613.809204,121.387939 616.376465,117.950516 618.950378,114.518066 
	C623.822998,108.020256 628.251038,101.115746 633.703003,95.146706 
	C638.938782,89.414307 640.321960,82.682388 642.247681,75.612808 
	C644.394287,67.732430 648.476318,60.371803 651.836975,52.838982 
	C652.258423,51.894253 653.417236,51.278492 655.023315,50.890114 
	C652.778748,58.867653 650.534180,66.845192 648.289612,74.822739 
	C648.654846,74.973801 649.020081,75.124870 649.385315,75.275940 
	C662.156860,63.781414 674.928467,52.286892 687.700012,40.792370 
	C688.145813,41.230526 688.591614,41.668686 689.037415,42.106842 
	C673.498474,58.005051 658.569946,74.400612 645.372070,93.581970 
	C656.225769,95.133400 665.363037,90.455124 676.006897,90.056389 
	C668.192383,96.112244 660.269104,99.848404 651.401672,99.810722 
	C643.413818,99.776779 638.098572,102.408676 633.981018,109.334602 
	C627.451477,120.317459 620.171570,130.853241 613.264648,141.613800 
	C612.393372,142.971207 611.857544,144.543884 610.750977,146.901810 
	C626.263245,145.342560 639.997742,139.725098 654.341431,136.372192 
	C647.714233,142.914886 640.093384,147.903931 631.476379,150.871704 
	C623.035461,153.778854 614.218689,155.581543 605.622864,158.062943 
	C603.844788,158.576248 601.867432,159.581894 600.737488,160.973953 
	C589.980774,174.226196 579.385803,187.609756 568.756348,200.965088 
	C568.562134,201.209137 568.515198,201.570389 568.173584,202.475662 
	C582.696228,205.109940 596.061829,197.678116 610.848450,198.187714 
	C606.623840,203.597565 601.072327,206.093842 595.607971,208.637634 
	C585.197632,213.483978 574.250916,215.928787 562.751770,214.953720 
	C557.695129,214.524933 554.137695,216.171890 550.469971,219.757629 
	C542.888306,227.169754 534.617432,233.874039 526.702271,240.950317 
	C524.988159,242.482773 523.578857,244.356094 521.998169,246.403137 
	C521.813171,246.794556 521.660156,246.858200 521.504822,246.915497 
	C511.435181,250.629532 508.894226,248.639114 510.115967,237.473480 
z"/>
<path fill="#FCCC45" opacity="1.000000" stroke="none" 
	d="
M862.992859,1014.431763 
	C863.606689,1014.568054 864.600647,1015.095215 864.662048,1015.714844 
	C865.380310,1022.957458 865.958313,1030.213867 866.286377,1037.734619 
	C864.979553,1030.290161 863.959717,1022.577820 862.992859,1014.431763 
z"/>
<path fill="#FCCC45" opacity="1.000000" stroke="none" 
	d="
M1257.718384,1057.542969 
	C1256.885498,1052.158447 1256.144043,1046.357422 1255.684326,1040.283691 
	C1256.580688,1045.716187 1257.195312,1051.421265 1257.718384,1057.542969 
z"/>
<path fill="#FCCC45" opacity="1.000000" stroke="none" 
	d="
M1255.065186,1029.558594 
	C1254.343628,1028.592773 1253.260010,1027.231689 1253.104858,1025.771851 
	C1252.815796,1023.053528 1253.067505,1020.277710 1253.173218,1017.027039 
	C1253.875610,1020.725037 1254.498779,1024.921753 1255.065186,1029.558594 
z"/>
<path fill="#FCCC45" opacity="1.000000" stroke="none" 
	d="
M866.061890,1041.455200 
	C866.609253,1044.513794 867.078369,1048.016846 867.268433,1051.761719 
	C866.654114,1048.635742 866.318848,1045.267578 866.061890,1041.455200 
z"/>
<path fill="#FCCC45" opacity="1.000000" stroke="none" 
	d="
M1252.850342,1012.641785 
	C1252.222900,1010.507019 1251.666016,1007.976440 1251.188843,1004.979370 
	C1251.819336,1007.090637 1252.370117,1009.668335 1252.850342,1012.641785 
z"/>
<path fill="#FCCC45" opacity="1.000000" stroke="none" 
	d="
M1250.774170,1000.614380 
	C1250.240356,999.175781 1249.772949,997.363647 1249.522095,995.291443 
	C1250.105957,996.767883 1250.473267,998.504333 1250.774170,1000.614380 
z"/>
<path fill="#FCCC45" opacity="1.000000" stroke="none" 
	d="
M1255.951782,1037.591553 
	C1255.620239,1036.437256 1255.369019,1034.887573 1255.202881,1032.916870 
	C1255.536011,1034.062622 1255.784058,1035.629517 1255.951782,1037.591553 
z"/>
</svg>