<svg width="50" height="50" viewBox="0 0 50 50" fill="none" xmlns="http://www.w3.org/2000/svg">
<rect width="49.56" height="49.56" rx="24.78" fill="#FFC899"/>
<path fill-rule="evenodd" clip-rule="evenodd" d="M32.2143 19.824C32.2143 23.9297 28.886 27.258 24.7803 27.258C20.6746 27.258 17.3463 23.9297 17.3463 19.824C17.3463 15.7183 20.6746 12.39 24.7803 12.39C28.886 12.39 32.2143 15.7183 32.2143 19.824ZM29.7363 19.824C29.7363 22.5611 27.5174 24.78 24.7803 24.78C22.0432 24.78 19.8243 22.5611 19.8243 19.824C19.8243 17.0869 22.0432 14.868 24.7803 14.868C27.5174 14.868 29.7363 17.0869 29.7363 19.824Z" fill="#5D2D00"/>
<path d="M24.7803 30.975C16.7585 30.975 9.92378 35.7184 7.32025 42.3639C7.95449 42.9937 8.62261 43.5895 9.32164 44.1481C11.2604 38.0468 17.3422 33.453 24.7803 33.453C32.2184 33.453 38.3002 38.0468 40.2389 44.1481C40.938 43.5895 41.6061 42.9938 42.2403 42.364C39.6368 35.7184 32.8021 30.975 24.7803 30.975Z" fill="#5D2D00"/>
</svg>
