<svg version="1.1" id="Layer_1" xmlns="http://www.w3.org/2000/svg" xmlns:xlink="http://www.w3.org/1999/xlink" x="0px" y="0px"
	 width="100%" viewBox="0 0 1920 1080" enable-background="new 0 0 1920 1080" xml:space="preserve">
<path fill="#FFFFFF" opacity="1.000000" stroke="none" 
	d="
M0.999996,759.000000 
	C1.000000,506.350281 1.000000,253.700577 1.000000,1.050873 
	C1.149698,1.033915 1.299396,1.002092 1.449093,1.002091 
	C641.239502,0.999997 1281.029907,1.000000 1920.910156,1.000000 
	C1920.910156,360.915924 1920.910156,720.831848 1920.910156,1080.873901 
	C1281.000000,1080.873901 641.000000,1080.873901 1.000004,1080.877441 
	C1.000000,980.888000 1.000000,880.894897 1.468657,780.450989 
	C141.627258,780.000183 281.317200,780.000732 421.007141,779.993652 
	C423.001923,779.993530 424.996735,779.898132 427.455566,779.913452 
	C497.468781,779.979797 567.017944,779.979797 637.265381,779.979797 
	C636.415466,769.553467 636.181091,759.754822 634.724670,750.141357 
	C630.765137,724.005737 622.656067,699.202332 609.526184,676.131653 
	C588.815491,639.740723 559.966553,611.705200 522.979858,592.172546 
	C487.985870,573.692261 450.650848,565.582764 411.097870,567.934021 
	C378.729553,569.858154 348.204224,578.177246 319.525757,594.148743 
	C317.580750,593.658691 315.868439,593.543884 314.485748,592.808960 
	C288.908417,579.213074 261.915222,570.290833 232.821030,569.101868 
	C217.809616,568.488464 202.661530,568.002930 187.736725,569.307495 
	C169.427826,570.907776 151.638809,575.767456 134.467819,582.608704 
	C109.621895,592.507751 87.395683,606.572266 67.866417,624.769470 
	C54.862057,636.886841 43.691509,650.556335 34.118744,665.633484 
	C18.059244,690.927307 7.490613,718.156616 3.197635,747.823364 
	C2.654556,751.576294 1.741589,755.275757 0.999996,759.000000 
M1844.596191,492.808533 
	C1844.812134,492.605713 1844.949585,492.359161 1845.927246,491.876312 
	C1852.255249,491.865448 1858.585938,491.951843 1864.909058,491.770538 
	C1866.358276,491.728943 1868.354614,491.165558 1869.076904,490.129578 
	C1870.080811,488.689697 1871.075928,485.865326 1870.363281,484.908875 
	C1869.083496,483.191254 1866.585815,481.551941 1864.498535,481.418091 
	C1857.777466,480.987183 1851.011475,481.257599 1844.010498,481.257599 
	C1844.010498,474.988800 1844.025513,469.349670 1844.006348,463.710632 
	C1843.987305,458.087189 1841.879761,455.561462 1837.183838,455.470062 
	C1832.716553,455.383118 1830.026611,458.471832 1829.996826,463.814911 
	C1829.964600,469.579590 1829.989502,475.344574 1829.989502,481.271912 
	C1826.152466,481.271912 1822.829224,481.216827 1819.508789,481.286957 
	C1815.971313,481.361664 1813.071777,483.129974 1813.186157,486.647797 
	C1813.296143,490.030396 1816.025391,491.919037 1819.694336,491.856140 
	C1823.286865,491.794525 1826.881348,491.842743 1830.741943,491.842743 
	C1830.741943,506.983948 1830.741943,521.444458 1830.104858,536.001099 
	C1829.791748,537.405945 1829.478638,538.810791 1829.153931,540.944702 
	C1830.817017,544.482666 1832.150391,548.226013 1834.203735,551.520752 
	C1840.788818,562.086731 1856.024658,566.498840 1868.618042,562.202820 
	C1873.127563,560.664551 1873.930298,557.815186 1873.181519,553.909424 
	C1872.282471,549.219910 1868.614258,550.902344 1866.026733,551.401611 
	C1852.231079,554.063538 1844.453857,548.309326 1844.179565,534.377930 
	C1843.908203,520.596741 1844.185303,506.804657 1844.596191,492.808533 
M122.079865,419.759125 
	C122.124550,420.420197 122.205109,421.081085 122.208588,421.742371 
	C122.269608,433.367279 120.703697,445.282654 122.727570,456.553833 
	C126.403450,477.025269 136.795410,494.190765 152.723984,508.192902 
	C160.769608,515.265503 169.580658,520.836121 179.164230,524.727173 
	C196.825333,531.897827 215.365005,533.058716 234.051208,528.876343 
	C274.228821,519.883911 302.030548,487.885071 306.732605,448.474884 
	C309.606964,424.383698 303.779144,401.936523 288.989990,382.153961 
	C264.579987,349.502167 228.332199,339.856354 193.233276,346.675232 
	C175.557999,350.109100 160.399429,358.727539 147.778198,371.446716 
	C139.586151,379.702332 132.772232,389.114655 128.601868,400.135254 
	C126.261658,406.319489 124.238327,412.623596 122.079865,419.759125 
M386.386841,523.152405 
	C427.213196,541.398376 476.069672,527.247375 500.956726,489.727020 
	C515.636230,467.595825 520.645142,443.303589 514.733093,417.337433 
	C509.772430,395.549744 498.481110,377.524323 480.487762,363.790649 
	C461.953888,349.644409 441.219757,343.732361 418.012939,344.922516 
	C382.616943,346.737885 357.003387,364.147644 340.568634,394.565643 
	C331.464569,411.415710 328.033722,430.000458 330.989868,449.630737 
	C334.067810,470.069916 342.396362,487.622559 356.245483,502.724091 
	C364.486511,511.710358 374.589355,518.028809 386.386841,523.152405 
M223.201004,317.810883 
	C225.955917,316.747955 228.768066,315.812225 231.456848,314.602325 
	C256.499542,303.333893 271.605072,282.895386 281.772217,258.489685 
	C286.477081,247.195969 288.937164,234.987091 293.077423,223.430466 
	C295.468872,216.755325 299.180267,210.553040 302.716675,203.275482 
	C296.797577,204.673248 291.218567,205.961868 285.653870,207.309616 
	C257.304962,214.175766 233.173325,227.607849 216.354172,252.217621 
	C208.843109,263.207794 203.418411,275.331879 200.372177,288.183899 
	C197.991974,298.225922 197.391037,308.696136 196.123337,318.991302 
	C195.760361,321.939240 197.193176,323.404938 200.303375,322.726318 
	C207.666504,321.119751 215.029099,319.510864 223.201004,317.810883 
M1045.003784,581.033325 
	C1040.794556,581.518127 1036.591064,582.345032 1032.374878,582.415588 
	C1023.956970,582.556519 1016.218445,579.883850 1009.055176,575.595642 
	C1005.947388,573.735229 1003.112488,573.205627 1001.116394,576.798035 
	C999.177185,580.287964 999.709961,583.468262 1003.403870,585.634460 
	C1016.988708,593.600891 1031.647217,594.386658 1046.754028,592.038025 
	C1048.484131,591.769043 1050.259155,591.471619 1051.875122,590.835938 
	C1065.883179,585.325134 1071.355225,573.794128 1071.694214,559.956482 
	C1072.289673,535.656799 1071.965088,511.333038 1071.888916,487.019775 
	C1071.874023,482.248230 1069.144897,479.952118 1064.634033,480.154083 
	C1060.274536,480.349213 1058.117920,482.727539 1057.982666,487.446472 
	C1057.938965,488.971802 1057.824829,490.495117 1057.668823,493.397369 
	C1049.548096,482.595490 1039.457886,479.231537 1027.787720,480.025482 
	C1018.437195,480.661652 1009.559265,483.451447 1003.849426,491.117188 
	C993.169800,505.454956 991.939331,521.394409 997.885315,538.123291 
	C1004.868652,557.770996 1023.758423,563.928711 1041.712158,558.191528 
	C1047.621704,556.303101 1052.632690,551.602356 1057.988647,548.229126 
	C1057.988647,551.190308 1057.845947,554.960327 1058.016357,558.716187 
	C1058.465454,568.612122 1054.916748,576.209961 1045.003784,581.033325 
M921.200195,500.783569 
	C921.785522,507.305267 922.727966,513.818665 922.879395,520.350403 
	C923.164917,532.670044 922.912231,545.001465 923.107544,557.324524 
	C923.135376,559.077332 923.919739,561.590332 925.208557,562.413635 
	C930.087891,565.530579 936.220093,562.052246 936.248535,556.130676 
	C936.329163,539.309875 936.688782,522.463135 935.928162,505.672424 
	C934.906128,483.114288 910.988098,471.701965 892.134094,484.502228 
	C888.227722,487.154327 885.078491,490.921600 881.513062,494.237488 
	C877.142395,483.893463 868.902039,480.102692 858.235779,479.943542 
	C847.874390,479.788971 839.484131,483.474518 832.879211,493.177155 
	C832.879211,490.365021 832.952393,489.044983 832.866272,487.735474 
	C832.520630,482.480225 830.356750,480.197510 825.755371,480.151855 
	C821.088074,480.105499 819.821411,481.538971 819.804871,487.749237 
	C819.744385,510.402649 819.779297,533.056274 819.792664,555.709839 
	C819.795044,559.836365 820.282654,563.382141 825.938904,563.072998 
	C831.083069,562.791931 833.030396,560.951843 833.080017,555.115479 
	C833.135315,548.619690 832.987244,542.120972 833.119019,535.627319 
	C833.304504,526.485474 833.164307,517.296021 834.087952,508.221069 
	C835.088745,498.388306 844.068420,488.710358 858.322144,491.549164 
	C864.769531,492.833252 868.250916,496.417511 869.668579,502.222534 
	C870.661987,506.290375 871.105652,510.576080 871.164490,514.773315 
	C871.363220,528.928833 871.321899,543.088440 871.278137,557.246216 
	C871.266113,561.128174 873.145447,562.838379 876.847839,563.012573 
	C882.497437,563.278320 884.773926,560.936157 884.823059,554.364624 
	C884.927673,540.373901 884.818115,526.380920 885.018982,512.392029 
	C885.126892,504.880371 888.321350,498.718750 894.323608,494.090820 
	C902.617310,487.696167 916.749756,490.915924 921.200195,500.783569 
M727.532776,532.083862 
	C743.842712,532.083862 760.152649,532.083862 776.495483,532.083862 
	C778.409363,536.753967 780.047119,541.291870 782.104126,545.631042 
	C784.626953,550.952637 787.019775,556.465149 790.490173,561.136292 
	C791.662659,562.714478 796.257996,562.902161 798.735352,562.072327 
	C801.968140,560.989380 801.463257,557.631592 800.261719,554.825439 
	C798.266907,550.166687 796.267761,545.509460 794.231506,540.868713 
	C781.090820,510.920990 767.951050,480.972839 754.777771,451.039429 
	C753.045166,447.102264 750.882629,443.758606 745.697571,443.937744 
	C740.456360,444.118866 738.755188,447.855927 737.052856,451.738312 
	C733.700928,459.382874 730.407776,467.053345 727.035461,474.688873 
	C721.747498,486.661987 716.381470,498.600647 711.108521,510.580322 
	C705.361755,523.636414 699.694275,536.727417 693.963867,549.790710 
	C693.075928,551.815002 691.276245,553.769165 691.266541,555.762451 
	C691.255310,558.058899 692.117798,561.165771 693.756470,562.483032 
	C696.500549,564.688904 701.926453,562.894226 703.645508,559.455688 
	C706.564270,553.617249 709.853088,547.764893 711.475647,541.525513 
	C713.690063,533.010010 718.669312,530.673828 727.532776,532.083862 
M1293.170898,466.678253 
	C1304.703491,456.198425 1317.833252,453.929352 1332.821045,457.761871 
	C1339.060181,459.357300 1344.724854,461.218933 1349.857422,465.136597 
	C1352.871460,467.437042 1356.435181,468.481659 1359.198730,464.330627 
	C1361.481323,460.902130 1360.743164,457.350128 1356.665894,454.621002 
	C1352.996826,452.165009 1349.133789,449.913177 1345.130249,448.059143 
	C1334.563232,443.165375 1323.201050,443.198853 1312.029907,444.230164 
	C1297.492920,445.572205 1285.470947,452.153992 1277.155762,464.520203 
	C1266.120361,480.932251 1263.852295,499.296417 1267.260620,518.141296 
	C1269.731689,531.804504 1275.384033,544.464905 1286.935669,553.401489 
	C1293.570923,558.534607 1301.116455,562.030884 1309.431885,562.715088 
	C1325.697632,564.053650 1341.661133,563.242126 1355.947144,553.653137 
	C1359.303467,551.400330 1361.695190,546.387146 1359.892090,542.978394 
	C1357.966919,539.339478 1354.145874,538.860779 1349.822388,541.767761 
	C1343.465820,546.041748 1336.782715,549.541260 1329.053711,550.541687 
	C1306.895020,553.409851 1287.686768,544.144165 1282.951660,519.796814 
	C1280.823120,508.852814 1280.323730,498.207520 1283.439697,486.933899 
	C1285.490356,479.513855 1288.040649,473.064911 1293.170898,466.678253 
M1374.987427,521.544312 
	C1376.350464,528.316101 1376.638794,535.565796 1379.378296,541.725464 
	C1382.129028,547.910828 1386.264648,554.621582 1391.703857,558.190979 
	C1399.055298,563.015198 1408.380371,563.445374 1417.525269,563.187988 
	C1426.823486,562.926331 1434.421997,559.524536 1440.898438,553.419250 
	C1449.125122,545.664124 1452.965698,535.788574 1452.817139,524.546509 
	C1452.699585,515.643250 1452.819824,506.663055 1447.741943,498.612335 
	C1443.965942,492.625580 1439.477051,487.543213 1433.204590,484.112213 
	C1431.214355,483.023590 1429.207764,480.304993 1427.547729,480.557953 
	C1420.080566,481.695526 1412.833862,479.313934 1405.144897,480.361176 
	C1398.099854,481.320709 1393.457397,484.924805 1388.575439,488.376373 
	C1381.809448,493.159912 1378.961548,500.898376 1377.192749,508.839752 
	C1376.323853,512.740845 1375.716064,516.700073 1374.987427,521.544312 
M1102.141479,491.539642 
	C1101.125244,492.791931 1099.979858,493.961121 1099.112915,495.309357 
	C1090.855103,508.151947 1090.428345,522.110657 1093.895996,536.360413 
	C1096.486694,547.007446 1102.390991,555.249084 1112.706299,560.134094 
	C1119.725220,563.458130 1127.009521,563.053345 1134.331177,562.989197 
	C1146.799683,562.879944 1156.167603,556.873840 1162.559937,546.628357 
	C1169.210449,535.968872 1170.303101,524.158142 1168.070557,511.855042 
	C1165.426758,497.286713 1158.296631,486.339539 1143.601440,482.057739 
	C1128.444824,477.641510 1114.203369,479.278748 1102.141479,491.539642 
M1664.537964,548.946289 
	C1668.067383,552.161011 1671.135010,556.275330 1675.234497,558.379517 
	C1681.377930,561.532898 1687.647949,564.900696 1695.419434,563.217957 
	C1700.158447,562.191833 1705.691406,564.376343 1710.233765,563.010437 
	C1716.114990,561.241882 1721.444214,557.506042 1726.821777,554.299683 
	C1727.967896,553.616394 1728.800049,551.608459 1728.916626,550.142334 
	C1729.309326,545.205750 1724.592407,543.239380 1719.294067,546.379395 
	C1710.314819,551.700745 1701.008057,554.105713 1690.487427,552.092957 
	C1678.617554,549.822083 1669.010010,538.318909 1670.687500,524.468018 
	C1686.129639,524.468018 1701.602783,524.468018 1717.076050,524.468018 
	C1731.033325,524.468018 1731.378540,524.430969 1729.898315,510.630737 
	C1728.700317,499.460876 1723.687988,489.900116 1713.515503,484.401306 
	C1700.314575,477.265442 1686.604004,478.175262 1674.048706,485.702087 
	C1660.284302,493.953827 1656.500244,508.232605 1656.279419,522.990784 
	C1656.147095,531.829834 1658.666870,540.771606 1664.537964,548.946289 
M1507.114380,480.325745 
	C1500.729004,482.910309 1494.343628,485.494904 1487.740967,488.167480 
	C1487.375122,487.495056 1486.470581,486.292908 1486.031982,484.939667 
	C1484.694458,480.813354 1481.661377,479.840149 1477.837769,480.303131 
	C1473.409668,480.839325 1473.069092,484.175446 1473.066650,487.616669 
	C1473.051147,510.270874 1473.054565,532.925049 1473.072388,555.579285 
	C1473.073364,556.738464 1473.155273,557.920044 1473.388916,559.052124 
	C1473.904175,561.549316 1475.211792,562.897400 1478.065186,563.039673 
	C1484.359009,563.353455 1486.513672,561.405029 1486.593018,554.002930 
	C1486.723145,541.844360 1486.516602,529.681641 1486.696289,517.524292 
	C1486.754272,513.599731 1486.938965,509.471771 1488.167725,505.806274 
	C1492.848511,491.842438 1507.779663,488.366882 1518.958008,492.603882 
	C1527.890869,495.989655 1528.764282,504.520203 1529.003296,512.421631 
	C1529.451416,527.233521 1529.113159,542.068054 1529.204346,556.892517 
	C1529.240845,562.829529 1530.485718,563.814148 1536.153320,563.017273 
	C1541.245117,562.301392 1542.690186,560.574036 1542.721191,554.450867 
	C1542.792969,540.292358 1542.993042,526.126526 1542.614136,511.977722 
	C1542.466431,506.464600 1542.013062,500.453125 1539.688599,495.639465 
	C1537.077271,490.231781 1533.092407,483.924103 1528.061646,481.660522 
	C1522.321533,479.077698 1514.768921,480.522583 1507.114380,480.325745 
M1580.892090,542.496277 
	C1580.899658,533.336548 1580.812012,524.175537 1580.937988,515.017456 
	C1581.113525,502.248535 1587.157593,494.543304 1599.327148,491.272491 
	C1609.278931,488.597717 1619.628784,493.620178 1621.866943,502.560303 
	C1622.844971,506.467316 1623.330322,510.596222 1623.348022,514.627380 
	C1623.410645,528.934387 1623.151489,543.242615 1623.102783,557.550659 
	C1623.099243,558.567932 1623.612427,559.729431 1624.223267,560.581665 
	C1626.840088,564.232544 1630.834351,563.434509 1634.144409,562.653625 
	C1637.072754,561.962891 1637.175659,559.114807 1637.103027,555.974365 
	C1636.748901,540.660767 1637.169434,525.329224 1636.814941,510.015594 
	C1636.620605,501.615326 1635.442627,493.161133 1628.636841,487.043335 
	C1620.846558,480.040527 1611.615723,478.124146 1601.526733,480.358673 
	C1595.327881,481.731567 1589.072632,483.090240 1584.939331,488.758087 
	C1583.895020,490.190063 1582.179688,491.132843 1580.018066,492.926483 
	C1580.018066,489.991455 1579.939575,488.188904 1580.033325,486.395355 
	C1580.279541,481.682770 1577.150635,480.262115 1573.420898,480.227875 
	C1569.601929,480.192810 1567.207520,481.826782 1567.241943,486.489990 
	C1567.412720,509.637268 1567.284668,532.786621 1567.294922,555.935242 
	C1567.297241,561.187744 1568.882446,562.918640 1573.522461,563.017151 
	C1578.485107,563.122498 1580.628662,561.182556 1580.846802,555.982788 
	C1581.021118,551.826477 1580.888428,547.657288 1580.892090,542.496277 
M1205.609863,513.119568 
	C1200.474976,510.577423 1199.326050,506.069946 1200.061401,500.979462 
	C1200.767822,496.090149 1204.002075,492.993744 1208.685791,491.949768 
	C1219.052368,489.639130 1229.083008,490.290070 1238.111572,496.622040 
	C1241.224609,498.805267 1243.852173,497.599823 1245.898071,495.316956 
	C1248.074341,492.888641 1247.198364,490.338257 1244.821167,488.377136 
	C1243.422607,487.223450 1241.972778,486.069275 1240.382935,485.220459 
	C1229.019775,479.153778 1217.083618,478.494415 1204.836182,481.834290 
	C1191.028320,485.599701 1185.897583,495.369019 1187.256836,508.729858 
	C1188.080200,516.823364 1197.913940,524.401428 1208.045410,526.008057 
	C1214.983765,527.108276 1221.822632,529.051880 1228.563354,531.089783 
	C1231.836060,532.079224 1234.846069,533.673340 1235.194458,538.233276 
	C1235.550537,542.893127 1234.887085,547.195312 1231.016235,549.515930 
	C1227.683472,551.514038 1223.472656,552.522278 1219.539429,552.950134 
	C1210.098389,553.977356 1201.342651,551.450867 1193.114380,546.729431 
	C1188.863770,544.290405 1184.339478,545.659607 1184.408081,549.552551 
	C1184.451294,552.014404 1186.829834,555.155945 1189.053955,556.733582 
	C1198.677002,563.559448 1209.882812,563.192688 1221.040527,563.083618 
	C1227.711792,563.018372 1233.522461,560.952942 1239.060913,557.461365 
	C1246.253052,552.927124 1249.118896,546.092590 1248.676147,538.098877 
	C1248.187744,529.282532 1243.140015,523.391602 1234.598877,521.009949 
	C1225.166016,518.379639 1215.631836,516.112976 1205.609863,513.119568 
M1759.873413,511.594269 
	C1762.432739,498.377777 1771.239502,490.743866 1784.218750,490.971985 
	C1790.285889,491.078613 1795.997681,492.635193 1801.092651,496.426331 
	C1805.452881,499.670563 1811.301880,497.223633 1810.697021,492.451080 
	C1810.407227,490.163818 1807.949341,487.581055 1805.791260,486.191803 
	C1789.857544,475.934418 1767.538574,478.155182 1754.423096,491.505066 
	C1751.597900,494.380737 1746.546753,496.546844 1748.096069,502.347076 
	C1748.292969,503.084442 1747.056885,504.167847 1746.571167,505.134521 
	C1746.064819,506.142090 1745.288940,507.198090 1745.277100,508.240295 
	C1745.204468,514.589417 1745.393066,520.941711 1745.314331,527.290649 
	C1745.293335,528.984680 1743.915649,530.934692 1744.415649,532.311523 
	C1745.951416,536.540100 1747.736572,540.767700 1750.080078,544.594421 
	C1754.643921,552.047058 1759.851318,559.281494 1768.998291,561.318848 
	C1774.647095,562.577087 1780.585205,562.691467 1786.410156,562.966736 
	C1794.145020,563.332214 1800.948730,560.516418 1807.175903,556.110840 
	C1810.286011,553.910400 1811.684937,550.855713 1809.471680,547.679321 
	C1807.451904,544.780518 1804.316772,544.673767 1801.403564,547.101135 
	C1800.812134,547.593872 1799.992310,547.804077 1799.301880,548.187805 
	C1782.441040,557.558716 1768.576416,551.963684 1761.438477,536.756287 
	C1757.895630,529.207886 1758.176514,520.706299 1759.873413,511.594269 
M961.263184,543.494995 
	C961.282104,547.989197 961.143372,552.491394 961.370056,556.975098 
	C961.550659,560.546387 963.015625,563.037476 967.313721,562.912537 
	C972.070679,562.774048 974.792664,560.173340 974.862000,554.693970 
	C974.975647,545.706360 974.895447,536.716309 974.895081,527.727295 
	C974.894470,514.576660 974.973328,501.425323 974.851990,488.275848 
	C974.800964,482.748901 972.660095,481.155792 967.225647,480.909882 
	C961.746277,480.661987 961.225342,483.846313 961.241516,488.063477 
	C961.310730,506.207703 961.266296,524.352356 961.263184,543.494995 
M972.558594,446.311493 
	C970.257812,446.202454 967.859314,445.640930 965.683716,446.111206 
	C963.495239,446.584259 960.161499,447.714752 959.757202,449.212524 
	C958.980164,452.091003 958.981018,455.941528 960.353638,458.468597 
	C962.706299,462.799774 970.234680,463.191315 973.868591,459.935364 
	C978.034851,456.202484 977.787170,451.396545 972.558594,446.311493 
z"/>
<path fill="#FF7B04" opacity="1.000000" stroke="none" 
	d="
M0.999996,759.468506 
	C1.741589,755.275757 2.654556,751.576294 3.197635,747.823364 
	C7.490613,718.156616 18.059244,690.927307 34.118744,665.633484 
	C43.691509,650.556335 54.862057,636.886841 67.866417,624.769470 
	C87.395683,606.572266 109.621895,592.507751 134.467819,582.608704 
	C151.638809,575.767456 169.427826,570.907776 187.736725,569.307495 
	C202.661530,568.002930 217.809616,568.488464 232.821030,569.101868 
	C261.915222,570.290833 288.908417,579.213074 314.485748,592.808960 
	C315.868439,593.543884 317.580750,593.658691 319.577087,594.487305 
	C320.690460,595.602295 321.251923,596.493530 322.059174,596.952454 
	C339.794220,607.034302 355.216248,619.936584 369.316650,634.637024 
	C385.590515,651.603455 398.313995,670.833252 408.109314,692.131165 
	C420.918823,719.983093 427.370636,749.171936 426.991516,779.847168 
	C424.996735,779.898132 423.001923,779.993530 421.007141,779.993652 
	C281.317200,780.000732 141.627258,780.000183 1.468657,780.000122 
	C1.000000,773.312378 1.000000,766.624695 0.999996,759.468506 
z"/>
<path fill="#FFC020" opacity="1.000000" stroke="none" 
	d="
M427.455566,779.913452 
	C427.370636,749.171936 420.918823,719.983093 408.109314,692.131165 
	C398.313995,670.833252 385.590515,651.603455 369.316650,634.637024 
	C355.216248,619.936584 339.794220,607.034302 322.059174,596.952454 
	C321.251923,596.493530 320.690460,595.602295 319.963196,594.573853 
	C348.204224,578.177246 378.729553,569.858154 411.097870,567.934021 
	C450.650848,565.582764 487.985870,573.692261 522.979858,592.172546 
	C559.966553,611.705200 588.815491,639.740723 609.526184,676.131653 
	C622.656067,699.202332 630.765137,724.005737 634.724670,750.141357 
	C636.181091,759.754822 636.415466,769.553467 637.265381,779.979797 
	C567.017944,779.979797 497.468781,779.979797 427.455566,779.913452 
z"/>
<path fill="#FF7B05" opacity="1.000000" stroke="none" 
	d="
M122.076050,419.316406 
	C124.238327,412.623596 126.261658,406.319489 128.601868,400.135254 
	C132.772232,389.114655 139.586151,379.702332 147.778198,371.446716 
	C160.399429,358.727539 175.557999,350.109100 193.233276,346.675232 
	C228.332199,339.856354 264.579987,349.502167 288.989990,382.153961 
	C303.779144,401.936523 309.606964,424.383698 306.732605,448.474884 
	C302.030548,487.885071 274.228821,519.883911 234.051208,528.876343 
	C215.365005,533.058716 196.825333,531.897827 179.164230,524.727173 
	C169.580658,520.836121 160.769608,515.265503 152.723984,508.192902 
	C136.795410,494.190765 126.403450,477.025269 122.727570,456.553833 
	C120.703697,445.282654 122.269608,433.367279 122.208588,421.742371 
	C122.205109,421.081085 122.124550,420.420197 122.076050,419.316406 
z"/>
<path fill="#FFC021" opacity="1.000000" stroke="none" 
	d="
M386.035248,523.012695 
	C374.589355,518.028809 364.486511,511.710358 356.245483,502.724091 
	C342.396362,487.622559 334.067810,470.069916 330.989868,449.630737 
	C328.033722,430.000458 331.464569,411.415710 340.568634,394.565643 
	C357.003387,364.147644 382.616943,346.737885 418.012939,344.922516 
	C441.219757,343.732361 461.953888,349.644409 480.487762,363.790649 
	C498.481110,377.524323 509.772430,395.549744 514.733093,417.337433 
	C520.645142,443.303589 515.636230,467.595825 500.956726,489.727020 
	C476.069672,527.247375 427.213196,541.398376 386.035248,523.012695 
z"/>
<path fill="#499935" opacity="1.000000" stroke="none" 
	d="
M222.796463,317.856903 
	C215.029099,319.510864 207.666504,321.119751 200.303375,322.726318 
	C197.193176,323.404938 195.760361,321.939240 196.123337,318.991302 
	C197.391037,308.696136 197.991974,298.225922 200.372177,288.183899 
	C203.418411,275.331879 208.843109,263.207794 216.354172,252.217621 
	C233.173325,227.607849 257.304962,214.175766 285.653870,207.309616 
	C291.218567,205.961868 296.797577,204.673248 302.716675,203.275482 
	C299.180267,210.553040 295.468872,216.755325 293.077423,223.430466 
	C288.937164,234.987091 286.477081,247.195969 281.772217,258.489685 
	C271.605072,282.895386 256.499542,303.333893 231.456848,314.602325 
	C228.768066,315.812225 225.955917,316.747955 222.796463,317.856903 
z"/>
<path fill="#060606" opacity="1.000000" stroke="none" 
	d="
M1045.390869,580.886963 
	C1054.916748,576.209961 1058.465454,568.612122 1058.016357,558.716187 
	C1057.845947,554.960327 1057.988647,551.190308 1057.988647,548.229126 
	C1052.632690,551.602356 1047.621704,556.303101 1041.712158,558.191528 
	C1023.758423,563.928711 1004.868652,557.770996 997.885315,538.123291 
	C991.939331,521.394409 993.169800,505.454956 1003.849426,491.117188 
	C1009.559265,483.451447 1018.437195,480.661652 1027.787720,480.025482 
	C1039.457886,479.231537 1049.548096,482.595490 1057.668823,493.397369 
	C1057.824829,490.495117 1057.938965,488.971802 1057.982666,487.446472 
	C1058.117920,482.727539 1060.274536,480.349213 1064.634033,480.154083 
	C1069.144897,479.952118 1071.874023,482.248230 1071.888916,487.019775 
	C1071.965088,511.333038 1072.289673,535.656799 1071.694214,559.956482 
	C1071.355225,573.794128 1065.883179,585.325134 1051.875122,590.835938 
	C1050.259155,591.471619 1048.484131,591.769043 1046.754028,592.038025 
	C1031.647217,594.386658 1016.988708,593.600891 1003.403870,585.634460 
	C999.709961,583.468262 999.177185,580.287964 1001.116394,576.798035 
	C1003.112488,573.205627 1005.947388,573.735229 1009.055176,575.595642 
	C1016.218445,579.883850 1023.956970,582.556519 1032.374878,582.415588 
	C1036.591064,582.345032 1040.794556,581.518127 1045.390869,580.886963 
M1058.287354,513.471313 
	C1057.998047,512.004761 1057.806885,510.510681 1057.403809,509.076111 
	C1054.094238,497.295502 1045.616821,490.733368 1033.765259,490.726593 
	C1021.567383,490.719635 1012.534973,497.185455 1010.097656,509.384857 
	C1008.767029,516.044983 1008.685974,523.395386 1009.998291,530.048523 
	C1012.510315,542.783752 1021.756958,549.371948 1034.348267,549.110413 
	C1046.407593,548.859924 1055.284424,541.588013 1057.697388,529.198181 
	C1058.636475,524.375732 1058.220215,519.289368 1058.287354,513.471313 
z"/>
<path fill="#050505" opacity="1.000000" stroke="none" 
	d="
M920.970947,500.448608 
	C916.749756,490.915924 902.617310,487.696167 894.323608,494.090820 
	C888.321350,498.718750 885.126892,504.880371 885.018982,512.392029 
	C884.818115,526.380920 884.927673,540.373901 884.823059,554.364624 
	C884.773926,560.936157 882.497437,563.278320 876.847839,563.012573 
	C873.145447,562.838379 871.266113,561.128174 871.278137,557.246216 
	C871.321899,543.088440 871.363220,528.928833 871.164490,514.773315 
	C871.105652,510.576080 870.661987,506.290375 869.668579,502.222534 
	C868.250916,496.417511 864.769531,492.833252 858.322144,491.549164 
	C844.068420,488.710358 835.088745,498.388306 834.087952,508.221069 
	C833.164307,517.296021 833.304504,526.485474 833.119019,535.627319 
	C832.987244,542.120972 833.135315,548.619690 833.080017,555.115479 
	C833.030396,560.951843 831.083069,562.791931 825.938904,563.072998 
	C820.282654,563.382141 819.795044,559.836365 819.792664,555.709839 
	C819.779297,533.056274 819.744385,510.402649 819.804871,487.749237 
	C819.821411,481.538971 821.088074,480.105499 825.755371,480.151855 
	C830.356750,480.197510 832.520630,482.480225 832.866272,487.735474 
	C832.952393,489.044983 832.879211,490.365021 832.879211,493.177155 
	C839.484131,483.474518 847.874390,479.788971 858.235779,479.943542 
	C868.902039,480.102692 877.142395,483.893463 881.513062,494.237488 
	C885.078491,490.921600 888.227722,487.154327 892.134094,484.502228 
	C910.988098,471.701965 934.906128,483.114288 935.928162,505.672424 
	C936.688782,522.463135 936.329163,539.309875 936.248535,556.130676 
	C936.220093,562.052246 930.087891,565.530579 925.208557,562.413635 
	C923.919739,561.590332 923.135376,559.077332 923.107544,557.324524 
	C922.912231,545.001465 923.164917,532.670044 922.879395,520.350403 
	C922.727966,513.818665 921.785522,507.305267 920.970947,500.448608 
z"/>
<path fill="#050505" opacity="1.000000" stroke="none" 
	d="
M727.039795,532.083862 
	C718.669312,530.673828 713.690063,533.010010 711.475647,541.525513 
	C709.853088,547.764893 706.564270,553.617249 703.645508,559.455688 
	C701.926453,562.894226 696.500549,564.688904 693.756470,562.483032 
	C692.117798,561.165771 691.255310,558.058899 691.266541,555.762451 
	C691.276245,553.769165 693.075928,551.815002 693.963867,549.790710 
	C699.694275,536.727417 705.361755,523.636414 711.108521,510.580322 
	C716.381470,498.600647 721.747498,486.661987 727.035461,474.688873 
	C730.407776,467.053345 733.700928,459.382874 737.052856,451.738312 
	C738.755188,447.855927 740.456360,444.118866 745.697571,443.937744 
	C750.882629,443.758606 753.045166,447.102264 754.777771,451.039429 
	C767.951050,480.972839 781.090820,510.920990 794.231506,540.868713 
	C796.267761,545.509460 798.266907,550.166687 800.261719,554.825439 
	C801.463257,557.631592 801.968140,560.989380 798.735352,562.072327 
	C796.257996,562.902161 791.662659,562.714478 790.490173,561.136292 
	C787.019775,556.465149 784.626953,550.952637 782.104126,545.631042 
	C780.047119,541.291870 778.409363,536.753967 776.495483,532.083862 
	C760.152649,532.083862 743.842712,532.083862 727.039795,532.083862 
M765.013550,504.491455 
	C758.907349,490.132812 752.801147,475.774200 746.319214,460.532013 
	C737.578369,481.132416 729.249634,500.761353 720.764832,520.758240 
	C729.907776,520.758240 738.239502,520.758240 746.571289,520.758240 
	C754.775818,520.758240 762.980347,520.758240 771.894104,520.758240 
	C769.416199,514.945740 767.341553,510.079041 765.013550,504.491455 
z"/>
<path fill="#060606" opacity="1.000000" stroke="none" 
	d="
M1292.929199,466.942230 
	C1288.040649,473.064911 1285.490356,479.513855 1283.439697,486.933899 
	C1280.323730,498.207520 1280.823120,508.852814 1282.951660,519.796814 
	C1287.686768,544.144165 1306.895020,553.409851 1329.053711,550.541687 
	C1336.782715,549.541260 1343.465820,546.041748 1349.822388,541.767761 
	C1354.145874,538.860779 1357.966919,539.339478 1359.892090,542.978394 
	C1361.695190,546.387146 1359.303467,551.400330 1355.947144,553.653137 
	C1341.661133,563.242126 1325.697632,564.053650 1309.431885,562.715088 
	C1301.116455,562.030884 1293.570923,558.534607 1286.935669,553.401489 
	C1275.384033,544.464905 1269.731689,531.804504 1267.260620,518.141296 
	C1263.852295,499.296417 1266.120361,480.932251 1277.155762,464.520203 
	C1285.470947,452.153992 1297.492920,445.572205 1312.029907,444.230164 
	C1323.201050,443.198853 1334.563232,443.165375 1345.130249,448.059143 
	C1349.133789,449.913177 1352.996826,452.165009 1356.665894,454.621002 
	C1360.743164,457.350128 1361.481323,460.902130 1359.198730,464.330627 
	C1356.435181,468.481659 1352.871460,467.437042 1349.857422,465.136597 
	C1344.724854,461.218933 1339.060181,459.357300 1332.821045,457.761871 
	C1317.833252,453.929352 1304.703491,456.198425 1292.929199,466.942230 
z"/>
<path fill="#070707" opacity="1.000000" stroke="none" 
	d="
M1374.988770,521.088623 
	C1375.716064,516.700073 1376.323853,512.740845 1377.192749,508.839752 
	C1378.961548,500.898376 1381.809448,493.159912 1388.575439,488.376373 
	C1393.457397,484.924805 1398.099854,481.320709 1405.144897,480.361176 
	C1412.833862,479.313934 1420.080566,481.695526 1427.547729,480.557953 
	C1429.207764,480.304993 1431.214355,483.023590 1433.204590,484.112213 
	C1439.477051,487.543213 1443.965942,492.625580 1447.741943,498.612335 
	C1452.819824,506.663055 1452.699585,515.643250 1452.817139,524.546509 
	C1452.965698,535.788574 1449.125122,545.664124 1440.898438,553.419250 
	C1434.421997,559.524536 1426.823486,562.926331 1417.525269,563.187988 
	C1408.380371,563.445374 1399.055298,563.015198 1391.703857,558.190979 
	C1386.264648,554.621582 1382.129028,547.910828 1379.378296,541.725464 
	C1376.638794,535.565796 1376.350464,528.316101 1374.988770,521.088623 
M1393.618530,540.657043 
	C1398.811157,549.746033 1406.820312,553.508057 1417.009033,552.514832 
	C1427.637207,551.478821 1434.247437,545.260925 1437.281250,535.268066 
	C1440.155029,525.801819 1440.126099,516.208191 1437.013672,506.801392 
	C1433.596436,496.473450 1425.604980,490.837311 1414.870117,490.734039 
	C1403.650024,490.626099 1395.533813,495.928711 1392.004761,506.444885 
	C1388.230469,517.691895 1388.458252,528.983643 1393.618530,540.657043 
z"/>
<path fill="#060606" opacity="1.000000" stroke="none" 
	d="
M1102.192139,491.175079 
	C1114.203369,479.278748 1128.444824,477.641510 1143.601440,482.057739 
	C1158.296631,486.339539 1165.426758,497.286713 1168.070557,511.855042 
	C1170.303101,524.158142 1169.210449,535.968872 1162.559937,546.628357 
	C1156.167603,556.873840 1146.799683,562.879944 1134.331177,562.989197 
	C1127.009521,563.053345 1119.725220,563.458130 1112.706299,560.134094 
	C1102.390991,555.249084 1096.486694,547.007446 1093.895996,536.360413 
	C1090.428345,522.110657 1090.855103,508.151947 1099.112915,495.309357 
	C1099.979858,493.961121 1101.125244,492.791931 1102.192139,491.175079 
M1148.920410,544.332153 
	C1156.547607,533.573975 1156.799927,521.625793 1154.012451,509.452026 
	C1151.250000,497.387787 1142.697144,490.761902 1130.896484,490.731659 
	C1118.813599,490.700684 1109.534180,497.368927 1107.390869,509.517975 
	C1106.034668,517.205322 1106.168091,525.440491 1107.260986,533.200745 
	C1108.543945,542.310730 1114.178833,549.137024 1123.396851,551.671509 
	C1132.876099,554.277710 1141.533447,552.421570 1148.920410,544.332153 
z"/>
<path fill="#050505" opacity="1.000000" stroke="none" 
	d="
M1664.294189,548.663269 
	C1658.666870,540.771606 1656.147095,531.829834 1656.279419,522.990784 
	C1656.500244,508.232605 1660.284302,493.953827 1674.048706,485.702087 
	C1686.604004,478.175262 1700.314575,477.265442 1713.515503,484.401306 
	C1723.687988,489.900116 1728.700317,499.460876 1729.898315,510.630737 
	C1731.378540,524.430969 1731.033325,524.468018 1717.076050,524.468018 
	C1701.602783,524.468018 1686.129639,524.468018 1670.687500,524.468018 
	C1669.010010,538.318909 1678.617554,549.822083 1690.487427,552.092957 
	C1701.008057,554.105713 1710.314819,551.700745 1719.294067,546.379395 
	C1724.592407,543.239380 1729.309326,545.205750 1728.916626,550.142334 
	C1728.800049,551.608459 1727.967896,553.616394 1726.821777,554.299683 
	C1721.444214,557.506042 1716.114990,561.241882 1710.233765,563.010437 
	C1705.691406,564.376343 1700.158447,562.191833 1695.419434,563.217957 
	C1687.647949,564.900696 1681.377930,561.532898 1675.234497,558.379517 
	C1671.135010,556.275330 1668.067383,552.161011 1664.294189,548.663269 
M1683.514648,515.779663 
	C1695.271973,515.779663 1707.029419,515.779663 1718.765015,515.779663 
	C1719.083130,499.654755 1710.091431,489.777771 1695.741699,489.880157 
	C1681.038818,489.985046 1670.193970,501.011383 1670.599854,515.779663 
	C1674.565552,515.779663 1678.543579,515.779663 1683.514648,515.779663 
z"/>
<path fill="#090909" opacity="1.000000" stroke="none" 
	d="
M1507.559204,480.271454 
	C1514.768921,480.522583 1522.321533,479.077698 1528.061646,481.660522 
	C1533.092407,483.924103 1537.077271,490.231781 1539.688599,495.639465 
	C1542.013062,500.453125 1542.466431,506.464600 1542.614136,511.977722 
	C1542.993042,526.126526 1542.792969,540.292358 1542.721191,554.450867 
	C1542.690186,560.574036 1541.245117,562.301392 1536.153320,563.017273 
	C1530.485718,563.814148 1529.240845,562.829529 1529.204346,556.892517 
	C1529.113159,542.068054 1529.451416,527.233521 1529.003296,512.421631 
	C1528.764282,504.520203 1527.890869,495.989655 1518.958008,492.603882 
	C1507.779663,488.366882 1492.848511,491.842438 1488.167725,505.806274 
	C1486.938965,509.471771 1486.754272,513.599731 1486.696289,517.524292 
	C1486.516602,529.681641 1486.723145,541.844360 1486.593018,554.002930 
	C1486.513672,561.405029 1484.359009,563.353455 1478.065186,563.039673 
	C1475.211792,562.897400 1473.904175,561.549316 1473.388916,559.052124 
	C1473.155273,557.920044 1473.073364,556.738464 1473.072388,555.579285 
	C1473.054565,532.925049 1473.051147,510.270874 1473.066650,487.616669 
	C1473.069092,484.175446 1473.409668,480.839325 1477.837769,480.303131 
	C1481.661377,479.840149 1484.694458,480.813354 1486.031982,484.939667 
	C1486.470581,486.292908 1487.375122,487.495056 1487.740967,488.167480 
	C1494.343628,485.494904 1500.729004,482.910309 1507.559204,480.271454 
z"/>
<path fill="#090909" opacity="1.000000" stroke="none" 
	d="
M1580.892090,542.994995 
	C1580.888428,547.657288 1581.021118,551.826477 1580.846802,555.982788 
	C1580.628662,561.182556 1578.485107,563.122498 1573.522461,563.017151 
	C1568.882446,562.918640 1567.297241,561.187744 1567.294922,555.935242 
	C1567.284668,532.786621 1567.412720,509.637268 1567.241943,486.489990 
	C1567.207520,481.826782 1569.601929,480.192810 1573.420898,480.227875 
	C1577.150635,480.262115 1580.279541,481.682770 1580.033325,486.395355 
	C1579.939575,488.188904 1580.018066,489.991455 1580.018066,492.926483 
	C1582.179688,491.132843 1583.895020,490.190063 1584.939331,488.758087 
	C1589.072632,483.090240 1595.327881,481.731567 1601.526733,480.358673 
	C1611.615723,478.124146 1620.846558,480.040527 1628.636841,487.043335 
	C1635.442627,493.161133 1636.620605,501.615326 1636.814941,510.015594 
	C1637.169434,525.329224 1636.748901,540.660767 1637.103027,555.974365 
	C1637.175659,559.114807 1637.072754,561.962891 1634.144409,562.653625 
	C1630.834351,563.434509 1626.840088,564.232544 1624.223267,560.581665 
	C1623.612427,559.729431 1623.099243,558.567932 1623.102783,557.550659 
	C1623.151489,543.242615 1623.410645,528.934387 1623.348022,514.627380 
	C1623.330322,510.596222 1622.844971,506.467316 1621.866943,502.560303 
	C1619.628784,493.620178 1609.278931,488.597717 1599.327148,491.272491 
	C1587.157593,494.543304 1581.113525,502.248535 1580.937988,515.017456 
	C1580.812012,524.175537 1580.899658,533.336548 1580.892090,542.994995 
z"/>
<path fill="#070707" opacity="1.000000" stroke="none" 
	d="
M1205.875732,513.403748 
	C1215.631836,516.112976 1225.166016,518.379639 1234.598877,521.009949 
	C1243.140015,523.391602 1248.187744,529.282532 1248.676147,538.098877 
	C1249.118896,546.092590 1246.253052,552.927124 1239.060913,557.461365 
	C1233.522461,560.952942 1227.711792,563.018372 1221.040527,563.083618 
	C1209.882812,563.192688 1198.677002,563.559448 1189.053955,556.733582 
	C1186.829834,555.155945 1184.451294,552.014404 1184.408081,549.552551 
	C1184.339478,545.659607 1188.863770,544.290405 1193.114380,546.729431 
	C1201.342651,551.450867 1210.098389,553.977356 1219.539429,552.950134 
	C1223.472656,552.522278 1227.683472,551.514038 1231.016235,549.515930 
	C1234.887085,547.195312 1235.550537,542.893127 1235.194458,538.233276 
	C1234.846069,533.673340 1231.836060,532.079224 1228.563354,531.089783 
	C1221.822632,529.051880 1214.983765,527.108276 1208.045410,526.008057 
	C1197.913940,524.401428 1188.080200,516.823364 1187.256836,508.729858 
	C1185.897583,495.369019 1191.028320,485.599701 1204.836182,481.834290 
	C1217.083618,478.494415 1229.019775,479.153778 1240.382935,485.220459 
	C1241.972778,486.069275 1243.422607,487.223450 1244.821167,488.377136 
	C1247.198364,490.338257 1248.074341,492.888641 1245.898071,495.316956 
	C1243.852173,497.599823 1241.224609,498.805267 1238.111572,496.622040 
	C1229.083008,490.290070 1219.052368,489.639130 1208.685791,491.949768 
	C1204.002075,492.993744 1200.767822,496.090149 1200.061401,500.979462 
	C1199.326050,506.069946 1200.474976,510.577423 1205.875732,513.403748 
z"/>
<path fill="#050505" opacity="1.000000" stroke="none" 
	d="
M1830.741943,535.904907 
	C1830.741943,521.444458 1830.741943,506.983948 1830.741943,491.842743 
	C1826.881348,491.842743 1823.286865,491.794525 1819.694336,491.856140 
	C1816.025391,491.919037 1813.296143,490.030396 1813.186157,486.647797 
	C1813.071777,483.129974 1815.971313,481.361664 1819.508789,481.286957 
	C1822.829224,481.216827 1826.152466,481.271912 1829.989502,481.271912 
	C1829.989502,475.344574 1829.964600,469.579590 1829.996826,463.814911 
	C1830.026611,458.471832 1832.716553,455.383118 1837.183838,455.470062 
	C1841.879761,455.561462 1843.987305,458.087189 1844.006348,463.710632 
	C1844.025513,469.349670 1844.010498,474.988800 1844.010498,481.257599 
	C1851.011475,481.257599 1857.777466,480.987183 1864.498535,481.418091 
	C1866.585815,481.551941 1869.083496,483.191254 1870.363281,484.908875 
	C1871.075928,485.865326 1870.080811,488.689697 1869.076904,490.129578 
	C1868.354614,491.165558 1866.358276,491.728943 1864.909058,491.770538 
	C1858.585938,491.951843 1852.255249,491.865448 1845.181152,491.934723 
	C1844.363892,492.334534 1844.292847,492.675934 1844.221924,493.017334 
	C1844.185303,506.804657 1843.908203,520.596741 1844.179565,534.377930 
	C1844.453857,548.309326 1852.231079,554.063538 1866.026733,551.401611 
	C1868.614258,550.902344 1872.282471,549.219910 1873.181519,553.909424 
	C1873.930298,557.815186 1873.127563,560.664551 1868.618042,562.202820 
	C1856.024658,566.498840 1840.788818,562.086731 1834.203735,551.520752 
	C1832.150391,548.226013 1830.817017,544.482666 1829.568848,540.560303 
	C1830.236450,538.752258 1830.489258,537.328552 1830.741943,535.904907 
z"/>
<path fill="#080808" opacity="1.000000" stroke="none" 
	d="
M1759.783936,512.019165 
	C1758.176514,520.706299 1757.895630,529.207886 1761.438477,536.756287 
	C1768.576416,551.963684 1782.441040,557.558716 1799.301880,548.187805 
	C1799.992310,547.804077 1800.812134,547.593872 1801.403564,547.101135 
	C1804.316772,544.673767 1807.451904,544.780518 1809.471680,547.679321 
	C1811.684937,550.855713 1810.286011,553.910400 1807.175903,556.110840 
	C1800.948730,560.516418 1794.145020,563.332214 1786.410156,562.966736 
	C1780.585205,562.691467 1774.647095,562.577087 1768.998291,561.318848 
	C1759.851318,559.281494 1754.643921,552.047058 1750.080078,544.594421 
	C1747.736572,540.767700 1745.951416,536.540100 1744.415649,532.311523 
	C1743.915649,530.934692 1745.293335,528.984680 1745.314331,527.290649 
	C1745.393066,520.941711 1745.204468,514.589417 1745.277100,508.240295 
	C1745.288940,507.198090 1746.064819,506.142090 1746.571167,505.134521 
	C1747.056885,504.167847 1748.292969,503.084442 1748.096069,502.347076 
	C1746.546753,496.546844 1751.597900,494.380737 1754.423096,491.505066 
	C1767.538574,478.155182 1789.857544,475.934418 1805.791260,486.191803 
	C1807.949341,487.581055 1810.407227,490.163818 1810.697021,492.451080 
	C1811.301880,497.223633 1805.452881,499.670563 1801.092651,496.426331 
	C1795.997681,492.635193 1790.285889,491.078613 1784.218750,490.971985 
	C1771.239502,490.743866 1762.432739,498.377777 1759.783936,512.019165 
z"/>
<path fill="#0B0B0B" opacity="1.000000" stroke="none" 
	d="
M961.263184,542.995911 
	C961.266296,524.352356 961.310730,506.207703 961.241516,488.063477 
	C961.225342,483.846313 961.746277,480.661987 967.225647,480.909882 
	C972.660095,481.155792 974.800964,482.748901 974.851990,488.275848 
	C974.973328,501.425323 974.894470,514.576660 974.895081,527.727295 
	C974.895447,536.716309 974.975647,545.706360 974.862000,554.693970 
	C974.792664,560.173340 972.070679,562.774048 967.313721,562.912537 
	C963.015625,563.037476 961.550659,560.546387 961.370056,556.975098 
	C961.143372,552.491394 961.282104,547.989197 961.263184,542.995911 
z"/>
<path fill="#090909" opacity="1.000000" stroke="none" 
	d="
M972.876160,446.576233 
	C977.787170,451.396545 978.034851,456.202484 973.868591,459.935364 
	C970.234680,463.191315 962.706299,462.799774 960.353638,458.468597 
	C958.981018,455.941528 958.980164,452.091003 959.757202,449.212524 
	C960.161499,447.714752 963.495239,446.584259 965.683716,446.111206 
	C967.859314,445.640930 970.257812,446.202454 972.876160,446.576233 
z"/>
<path fill="#B6B6B6" opacity="1.000000" stroke="none" 
	d="
M1830.423340,535.953003 
	C1830.489258,537.328552 1830.236450,538.752258 1829.574707,540.195740 
	C1829.478638,538.810791 1829.791748,537.405945 1830.423340,535.953003 
z"/>
<path fill="#DEDEDE" opacity="1.000000" stroke="none" 
	d="
M1844.409058,492.912964 
	C1844.292847,492.675934 1844.363892,492.334534 1844.721680,492.031006 
	C1844.949585,492.359161 1844.812134,492.605713 1844.409058,492.912964 
z"/>
<path fill="#FDFDFD" opacity="1.000000" stroke="none" 
	d="
M1058.354370,513.897278 
	C1058.220215,519.289368 1058.636475,524.375732 1057.697388,529.198181 
	C1055.284424,541.588013 1046.407593,548.859924 1034.348267,549.110413 
	C1021.756958,549.371948 1012.510315,542.783752 1009.998291,530.048523 
	C1008.685974,523.395386 1008.767029,516.044983 1010.097656,509.384857 
	C1012.534973,497.185455 1021.567383,490.719635 1033.765259,490.726593 
	C1045.616821,490.733368 1054.094238,497.295502 1057.403809,509.076111 
	C1057.806885,510.510681 1057.998047,512.004761 1058.354370,513.897278 
z"/>
<path fill="#FAFAFA" opacity="1.000000" stroke="none" 
	d="
M765.140198,504.851868 
	C767.341553,510.079041 769.416199,514.945740 771.894104,520.758240 
	C762.980347,520.758240 754.775818,520.758240 746.571289,520.758240 
	C738.239502,520.758240 729.907776,520.758240 720.764832,520.758240 
	C729.249634,500.761353 737.578369,481.132416 746.319214,460.532013 
	C752.801147,475.774200 758.907349,490.132812 765.140198,504.851868 
z"/>
<path fill="#FDFDFD" opacity="1.000000" stroke="none" 
	d="
M1393.413452,540.337952 
	C1388.458252,528.983643 1388.230469,517.691895 1392.004761,506.444885 
	C1395.533813,495.928711 1403.650024,490.626099 1414.870117,490.734039 
	C1425.604980,490.837311 1433.596436,496.473450 1437.013672,506.801392 
	C1440.126099,516.208191 1440.155029,525.801819 1437.281250,535.268066 
	C1434.247437,545.260925 1427.637207,551.478821 1417.009033,552.514832 
	C1406.820312,553.508057 1398.811157,549.746033 1393.413452,540.337952 
z"/>
<path fill="#FDFDFD" opacity="1.000000" stroke="none" 
	d="
M1148.693848,544.615967 
	C1141.533447,552.421570 1132.876099,554.277710 1123.396851,551.671509 
	C1114.178833,549.137024 1108.543945,542.310730 1107.260986,533.200745 
	C1106.168091,525.440491 1106.034668,517.205322 1107.390869,509.517975 
	C1109.534180,497.368927 1118.813599,490.700684 1130.896484,490.731659 
	C1142.697144,490.761902 1151.250000,497.387787 1154.012451,509.452026 
	C1156.799927,521.625793 1156.547607,533.573975 1148.693848,544.615967 
z"/>
<path fill="#F9F9F9" opacity="1.000000" stroke="none" 
	d="
M1683.018188,515.779663 
	C1678.543579,515.779663 1674.565552,515.779663 1670.599854,515.779663 
	C1670.193970,501.011383 1681.038818,489.985046 1695.741699,489.880157 
	C1710.091431,489.777771 1719.083130,499.654755 1718.765015,515.779663 
	C1707.029419,515.779663 1695.271973,515.779663 1683.018188,515.779663 
z"/>
</svg>