<svg version="1.1" id="Layer_1" xmlns="http://www.w3.org/2000/svg" xmlns:xlink="http://www.w3.org/1999/xlink" x="0px" y="0px"
	 width="100%" viewBox="0 0 1920 1080" enable-background="new 0 0 1920 1080" xml:space="preserve">
<path fill="#FFFFFF" opacity="1.000000" stroke="none" 
	d="
M1396.000000,1081.000000 
	C930.666748,1081.000000 465.833496,1081.000000 1.000187,1081.000000 
	C1.000125,721.000122 1.000125,361.000305 1.000062,1.000332 
	C640.999756,1.000221 1280.999512,1.000221 1920.999512,1.000111 
	C1920.999634,360.999664 1920.999634,720.999329 1920.999756,1080.999512 
	C1746.166626,1081.000000 1571.333374,1081.000000 1396.000000,1081.000000 
M971.313660,550.193542 
	C921.062073,522.567688 867.386047,511.146362 810.219666,515.937622 
	C772.057922,519.136108 736.160583,529.806091 702.425049,547.883911 
	C656.366516,572.565125 620.281372,607.664673 593.631531,652.468689 
	C573.804077,685.802795 561.784668,721.893677 557.314697,760.400146 
	C556.075989,771.071167 556.005493,781.877686 555.368713,793.160400 
	C558.112549,793.160400 559.899353,793.159607 561.686096,793.160583 
	C652.824219,793.209900 743.962341,793.278625 835.100464,793.303467 
	C926.073914,793.328186 1017.047302,793.310791 1108.020752,793.295898 
	C1110.008667,793.295593 1111.996582,793.102844 1114.918701,793.118713 
	C1205.950073,793.118713 1296.981445,793.118713 1388.169800,793.118713 
	C1388.169800,790.939331 1388.184448,789.611755 1388.167725,788.284546 
	C1387.668213,748.605225 1379.119995,710.761292 1361.991089,674.945496 
	C1333.429565,615.224487 1289.275146,570.831909 1229.767212,541.966492 
	C1201.884521,528.441528 1172.384277,520.165405 1141.469971,516.715393 
	C1115.127075,513.775452 1088.962769,514.385498 1062.862793,518.598572 
	C1030.691895,523.791565 1000.457703,534.612427 971.313660,550.193542 
M807.237793,225.736908 
	C789.996094,229.337753 774.743408,237.012726 760.666016,247.541656 
	C716.811096,280.342285 700.291748,342.096710 722.195740,392.320526 
	C754.219849,465.748840 844.175903,489.736298 908.468262,441.991455 
	C949.329468,411.647034 967.015686,356.796387 951.586731,308.267242 
	C932.157654,247.156525 870.843811,211.792603 807.237793,225.736908 
M987.176392,338.772217 
	C987.872253,348.554810 987.609680,358.518463 989.418274,368.090820 
	C1001.819702,433.729126 1067.343262,477.719757 1132.604370,464.616913 
	C1190.508789,452.991119 1231.498413,402.400787 1231.348022,345.357544 
	C1231.267944,315.044861 1222.047607,288.090210 1202.345215,265.480957 
	C1172.535156,231.272644 1134.384399,217.571228 1089.452515,224.145859 
	C1061.970581,228.167114 1038.836182,241.105698 1019.936218,261.371185 
	C999.876160,282.880585 989.296936,308.571991 987.176392,338.772217 
M857.222473,79.711884 
	C825.776550,109.381615 813.458984,147.121826 811.111267,189.058899 
	C810.869019,193.386841 813.224121,194.639664 817.123352,193.853287 
	C820.376831,193.197128 823.615173,192.459244 826.880432,191.869461 
	C843.343140,188.895996 859.515503,185.022583 873.429260,175.101135 
	C902.443665,154.411819 920.382935,125.942566 929.772339,92.093620 
	C934.812744,73.922981 939.098755,55.668011 950.653564,40.205841 
	C950.988892,39.757126 950.902893,38.993538 951.018433,38.348022 
	C928.337219,37.479706 882.332886,57.700249 857.222473,79.711884 
M521.167236,938.331116 
	C517.205505,922.867615 508.592072,915.238220 493.053772,913.741028 
	C475.426849,912.042603 461.553192,918.210022 452.062836,934.379272 
	C446.919006,919.472412 435.899445,913.736755 421.487335,913.411865 
	C407.142822,913.088562 395.819366,918.875000 387.720245,931.159729 
	C387.311523,929.434692 387.324921,927.994995 387.308014,926.555725 
	C387.288483,924.890381 387.337982,923.216858 387.189758,921.561829 
	C386.743988,916.584778 384.037354,914.066467 379.104126,913.922363 
	C373.016296,913.744568 370.175354,916.748474 370.156982,923.816101 
	C370.098053,946.474976 370.133057,969.134155 370.134155,991.793213 
	C370.134491,998.957458 369.999146,1006.125366 370.186829,1013.284851 
	C370.372406,1020.362732 374.559723,1023.545288 381.436920,1022.184814 
	C385.913635,1021.299194 387.829712,1018.536255 387.857635,1012.402039 
	C387.941132,994.075439 387.694916,975.743774 388.050781,957.423218 
	C388.342224,942.418396 396.424011,931.094482 408.863251,928.634460 
	C425.596100,925.325378 435.467194,931.329834 437.190643,947.670593 
	C437.574066,951.305725 437.829987,954.972107 437.844238,958.625305 
	C437.915833,976.952148 437.826294,995.279785 437.930359,1013.606323 
	C437.963348,1019.413025 441.065643,1022.419434 446.464081,1022.467285 
	C451.985168,1022.516235 455.081818,1019.699951 455.269012,1013.895874 
	C455.489166,1007.071777 455.302795,1000.235535 455.382477,993.405640 
	C455.535919,980.251038 455.260101,967.066406 456.081360,953.951721 
	C456.905060,940.798035 465.082520,931.297546 476.441071,928.525330 
	C492.021820,924.722717 502.564362,931.363647 504.766510,946.592407 
	C505.335693,950.528748 505.331635,954.568298 505.344757,958.561218 
	C505.403870,976.554993 505.298553,994.549561 505.415466,1012.542786 
	C505.460602,1019.482300 508.543945,1022.611816 514.506104,1022.445007 
	C520.196045,1022.285828 522.988037,1019.132568 523.001465,1012.475037 
	C523.042053,992.315369 523.089172,972.154663 522.915161,951.996277 
	C522.878174,947.705872 521.916870,943.423462 521.167236,938.331116 
M665.598450,1061.051025 
	C686.077454,1057.189697 698.295471,1044.689697 699.946228,1024.014893 
	C701.123047,1009.276672 700.786072,994.408203 700.892212,979.596252 
	C701.025879,960.940247 700.965271,942.282471 700.899414,923.625671 
	C700.875549,916.865845 698.143127,913.932373 692.265869,913.914612 
	C686.350098,913.896729 683.727295,916.731689 683.495483,923.529358 
	C683.402588,926.253967 683.480225,928.984436 683.480225,931.990234 
	C679.695068,928.122314 676.753174,924.268188 673.027771,921.449707 
	C651.882385,905.451904 618.034546,913.558838 606.193909,937.598328 
	C598.578308,953.059998 598.034180,969.369446 602.915405,985.743713 
	C608.104919,1003.152405 619.486572,1014.588440 637.607361,1017.696838 
	C655.827820,1020.822266 671.705017,1016.518494 682.486694,1000.010681 
	C682.582703,999.863647 683.100830,999.992371 684.118103,999.992371 
	C683.716736,1008.322571 683.859863,1016.679199 682.790649,1024.877808 
	C681.203247,1037.050659 673.111816,1045.005981 661.056763,1047.070923 
	C646.183044,1049.618896 632.322327,1046.477051 619.305359,1039.073853 
	C613.965332,1036.036865 610.537720,1036.531372 608.114868,1040.565430 
	C605.667480,1044.640137 607.037781,1048.506836 612.257996,1051.596191 
	C628.558289,1061.243042 646.225159,1063.533203 665.598450,1061.051025 
M248.934906,907.348511 
	C234.024048,941.238525 219.105301,975.125122 204.226074,1009.029053 
	C203.498123,1010.687805 202.894196,1012.463867 202.617188,1014.245117 
	C201.924606,1018.698853 204.226196,1021.631836 208.681473,1022.296692 
	C213.904602,1023.076111 217.134415,1021.096680 220.020691,1014.644165 
	C224.359070,1004.945312 228.523209,995.165283 232.560745,985.337280 
	C233.589706,982.832703 234.787704,981.835083 237.628555,981.850037 
	C261.943268,981.978088 286.259003,981.957397 310.574066,981.872864 
	C313.112885,981.864075 314.321503,982.653564 315.320312,985.066406 
	C319.320160,994.728943 323.576416,1004.286316 327.819885,1013.846191 
	C328.687347,1015.800476 329.667206,1017.798645 331.018951,1019.424255 
	C333.656036,1022.595520 339.611176,1023.529297 342.902313,1021.374268 
	C346.956970,1018.719177 346.390259,1014.995178 344.896545,1011.173462 
	C344.594543,1010.400818 344.246887,1009.645752 343.911835,1008.886230 
	C324.276062,964.376526 304.613861,919.878418 285.038147,875.342285 
	C282.816315,870.287476 279.983612,866.144531 273.890137,866.246460 
	C268.088806,866.343384 265.152496,870.337524 263.033844,875.174377 
	C258.437256,885.668396 253.799805,896.144592 248.934906,907.348511 
M959.832031,915.222168 
	C955.787476,929.531128 955.232971,944.054016 956.899048,958.768188 
	C960.636414,991.776123 980.789001,1019.140015 1019.031860,1022.503235 
	C1039.222290,1024.278809 1058.177856,1020.793213 1074.495850,1007.835388 
	C1076.348633,1006.364136 1078.716919,1004.031616 1078.720825,1002.093994 
	C1078.727051,999.137390 1077.644043,995.420166 1075.640137,993.394287 
	C1072.589600,990.310303 1068.733032,992.194336 1065.682861,994.488525 
	C1055.075806,1002.466797 1043.062500,1006.168945 1029.918945,1006.665955 
	C1004.121338,1007.641479 985.507385,994.779907 978.592285,970.464478 
	C973.469299,952.450745 973.616089,934.226562 979.132812,916.290405 
	C983.628235,901.674622 992.580200,890.539368 1007.444397,885.628479 
	C1027.370361,879.045227 1046.463867,880.977539 1064.039307,893.173279 
	C1065.267334,894.025513 1066.464600,894.967163 1067.799683,895.611023 
	C1070.893677,897.102905 1074.513062,897.487427 1076.358887,894.441711 
	C1077.875366,891.939331 1078.372437,888.343811 1078.046875,885.372437 
	C1077.840820,883.490295 1075.523193,881.583374 1073.765137,880.169312 
	C1063.462891,871.882568 1051.384521,867.889221 1038.449341,866.448730 
	C1002.647034,862.461670 970.888062,877.629517 959.832031,915.222168 
M1487.543457,988.649109 
	C1486.193726,983.261353 1484.843994,977.873535 1483.354370,971.927612 
	C1486.243408,971.927612 1488.059204,971.927673 1489.875000,971.927612 
	C1511.529175,971.927429 1533.183472,971.949158 1554.837646,971.913208 
	C1561.162109,971.902649 1563.754150,970.054749 1563.725586,965.031799 
	C1563.661499,953.744568 1561.751953,942.832703 1555.653198,933.047058 
	C1540.386841,908.552124 1501.455200,906.422241 1480.999634,928.938904 
	C1463.811523,947.858948 1461.979492,982.715637 1477.275757,1003.221191 
	C1485.810669,1014.662720 1497.570679,1020.569397 1511.604492,1022.297058 
	C1528.055298,1024.322021 1543.501343,1021.565918 1557.209717,1011.990784 
	C1559.500854,1010.390381 1561.568726,1006.598267 1561.492798,1003.881836 
	C1561.347534,998.690552 1555.659058,996.933655 1550.264160,1000.288208 
	C1542.764648,1004.951355 1534.727539,1007.677979 1525.985229,1008.657043 
	C1508.471802,1010.618347 1494.855957,1003.777100 1487.543457,988.649109 
M1099.966919,980.553406 
	C1104.447876,1005.006409 1118.682739,1019.176636 1142.164795,1022.559631 
	C1168.480957,1026.350830 1191.593872,1011.828308 1197.419800,986.390442 
	C1199.634399,976.721436 1199.950684,966.125244 1198.703247,956.258728 
	C1196.141357,935.998230 1185.215576,921.386963 1164.928467,915.420715 
	C1144.200317,909.324707 1122.124512,915.713989 1110.206177,931.251038 
	C1099.157104,945.654907 1097.659180,962.326355 1099.966919,980.553406 
M802.581543,1017.134216 
	C814.319336,1010.724731 822.261658,1000.988892 825.172729,988.096252 
	C827.126099,979.445190 828.168762,970.276306 827.685486,961.444946 
	C826.141907,933.236938 808.091980,915.287170 780.633057,913.461914 
	C755.744629,911.807495 735.311584,925.752197 729.736877,949.802429 
	C727.531250,959.317749 727.385620,969.666687 728.249634,979.464355 
	C730.136658,1000.862732 744.461243,1016.931580 764.466309,1021.484558 
	C777.331970,1024.412720 789.926086,1023.371887 802.581543,1017.134216 
M1317.672485,997.498962 
	C1317.459229,980.179382 1317.856445,962.824890 1316.869873,945.549438 
	C1315.773560,926.351074 1304.524414,915.481812 1285.491699,913.745117 
	C1268.644043,912.207764 1254.349121,916.909424 1243.768677,932.640259 
	C1243.768677,928.685364 1243.865234,925.934875 1243.749512,923.193359 
	C1243.481567,916.851929 1240.722046,913.952148 1235.083862,913.920593 
	C1229.346680,913.888428 1226.604492,916.607056 1226.585083,923.175171 
	C1226.496338,953.165039 1226.546631,983.155334 1226.565552,1013.145447 
	C1226.566162,1014.138672 1226.705078,1015.142700 1226.883301,1016.122864 
	C1227.522217,1019.636169 1229.589233,1021.666199 1233.157593,1022.258301 
	C1240.064331,1023.404419 1244.013916,1020.203064 1244.049316,1013.018005 
	C1244.137207,995.190979 1243.864136,977.359314 1244.168091,959.536926 
	C1244.536377,937.937378 1260.529419,924.738464 1281.787598,928.153748 
	C1290.060913,929.482971 1296.028198,933.877136 1298.046875,942.263000 
	C1299.165039,946.908020 1299.855591,951.766479 1299.908203,956.537903 
	C1300.115967,975.362854 1299.945801,994.191589 1300.023315,1013.018494 
	C1300.048706,1019.212524 1303.012939,1022.308105 1308.569458,1022.446655 
	C1314.200928,1022.587097 1317.286499,1019.691772 1317.588013,1013.490173 
	C1317.830322,1008.503235 1317.659912,1003.496155 1317.672485,997.498962 
M1367.693604,995.499756 
	C1367.737549,982.844727 1367.396851,970.174011 1367.912354,957.538208 
	C1368.761963,936.710815 1386.328613,923.810669 1406.756470,928.432129 
	C1414.898071,930.273926 1420.142334,935.169556 1421.863037,943.197937 
	C1422.968384,948.355469 1423.377686,953.740540 1423.433228,959.030579 
	C1423.620361,976.846802 1423.442383,994.666565 1423.546265,1012.484192 
	C1423.586914,1019.443848 1426.569580,1022.552673 1432.533203,1022.463806 
	C1438.173584,1022.379761 1441.035645,1019.157227 1441.048584,1012.534973 
	C1441.087402,992.552124 1441.105469,972.568726 1440.986694,952.586426 
	C1440.964111,948.779785 1440.571045,944.920227 1439.844604,941.183105 
	C1437.585815,929.562866 1431.996460,920.254883 1420.281982,916.107727 
	C1404.153931,910.398071 1380.045776,912.567383 1368.261597,931.262207 
	C1368.162231,931.419678 1367.724731,931.363953 1367.126221,931.457825 
	C1367.126221,928.631409 1367.185547,925.851868 1367.114136,923.075745 
	C1366.952637,916.791931 1364.181030,913.889648 1358.458130,913.909546 
	C1353.003418,913.928528 1350.065674,916.795959 1350.050293,922.778748 
	C1349.972412,952.919556 1349.972778,983.060791 1350.042358,1013.201660 
	C1350.056763,1019.438965 1353.034912,1022.414917 1358.683838,1022.457947 
	C1364.479614,1022.502075 1367.351074,1019.795349 1367.612671,1013.482544 
	C1367.846802,1007.830078 1367.682251,1002.161194 1367.693604,995.499756 
M931.871521,984.793884 
	C929.916199,976.910156 924.793152,971.658936 917.590454,968.525696 
	C913.200867,966.616211 908.544983,965.217590 903.896912,964.025452 
	C895.369568,961.838135 886.647461,960.350037 878.222534,957.844482 
	C872.367432,956.103149 868.940979,951.606689 868.583008,945.199036 
	C868.234924,938.967773 870.713440,934.125366 875.998474,930.939148 
	C878.233032,929.591919 880.796082,928.567932 883.344177,927.999329 
	C896.418335,925.082397 908.393860,928.049438 919.526489,935.164307 
	C922.904785,937.323364 926.142273,937.389954 928.809143,934.004700 
	C931.174927,931.001709 930.558105,926.964722 927.455139,924.211914 
	C912.192444,910.671692 878.880005,909.697876 862.796753,922.363037 
	C853.998474,929.291504 850.879150,938.593811 852.232727,949.407715 
	C853.541504,959.864685 859.872803,966.488281 869.495911,970.104065 
	C872.749207,971.326477 876.144958,972.211670 879.526855,973.041992 
	C887.920776,975.102600 896.452576,976.678589 904.724609,979.137024 
	C912.502869,981.448669 915.935181,986.178467 915.889893,992.660461 
	C915.842224,999.490662 911.857605,1005.201477 904.495911,1007.331726 
	C899.780212,1008.696289 894.695190,1009.229614 889.762573,1009.308350 
	C878.853271,1009.482422 868.788086,1006.231445 859.458801,1000.605042 
	C855.918945,998.470276 852.477539,998.181335 849.843018,1002.033997 
	C847.677856,1005.200500 848.720825,1009.417542 852.232483,1012.116028 
	C853.415649,1013.025269 854.680664,1013.859924 855.999451,1014.555847 
	C873.659058,1023.875732 892.197998,1025.736084 911.104370,1019.641907 
	C927.208740,1014.450867 934.139771,1002.390808 931.871521,984.793884 
M1749.876587,1007.788391 
	C1746.595703,1007.673828 1743.197876,1006.947205 1740.053711,1007.548096 
	C1724.535522,1010.514038 1713.702026,1003.512817 1712.923462,987.938354 
	C1711.960327,968.669617 1712.522095,949.324585 1712.448975,930.012451 
	C1712.448120,929.770203 1712.763550,929.526794 1713.106201,929.030640 
	C1714.250977,929.030640 1715.569824,929.031982 1716.888672,929.030396 
	C1724.717407,929.021057 1732.547729,929.097046 1740.374390,928.965759 
	C1744.380371,928.898621 1746.964233,926.954224 1747.236328,922.638977 
	C1747.525269,918.056641 1745.085815,915.851135 1740.820190,915.410278 
	C1738.675415,915.188477 1736.495239,915.281555 1734.331055,915.277771 
	C1727.053711,915.265137 1719.776367,915.272949 1712.240601,915.272949 
	C1712.240601,906.296936 1712.394653,897.970398 1712.187378,889.652893 
	C1712.046753,884.013062 1708.659424,881.199219 1703.096802,881.493713 
	C1697.859253,881.771118 1694.985107,884.643311 1694.896851,890.170166 
	C1694.765015,898.443176 1694.862549,906.719727 1694.862549,915.279968 
	C1689.762573,915.279968 1685.275269,915.173157 1680.795288,915.306824 
	C1675.164795,915.474854 1672.766968,917.551575 1672.714111,921.984253 
	C1672.657471,926.733826 1675.170898,928.930176 1680.938354,929.015381 
	C1685.517212,929.082947 1690.098022,929.028992 1694.838867,929.028992 
	C1694.838867,931.759521 1694.834961,933.745911 1694.839478,935.732239 
	C1694.879639,953.554871 1694.613281,971.385071 1695.049927,989.197998 
	C1695.478516,1006.680603 1704.906250,1018.886169 1720.522827,1021.603577 
	C1727.579102,1022.831360 1735.108765,1022.456482 1742.280762,1021.605774 
	C1750.423096,1020.640076 1752.296265,1016.818481 1749.876587,1007.788391 
M1655.028076,1002.643799 
	C1653.726562,1003.383545 1652.459106,1004.192017 1651.118652,1004.852783 
	C1629.452271,1015.533630 1606.598511,1004.641846 1602.064575,981.039062 
	C1600.764282,974.269592 1600.650024,967.108337 1601.095093,960.197815 
	C1602.497192,938.426025 1617.308838,925.703491 1638.899536,928.247437 
	C1645.056641,928.972900 1651.064819,932.240662 1656.776733,935.076660 
	C1661.637451,937.489868 1664.782593,937.679138 1667.254272,934.098877 
	C1669.756714,930.473999 1669.005249,926.953369 1665.075317,923.694946 
	C1656.768433,916.807678 1646.936646,914.250793 1636.438843,913.480896 
	C1612.112061,911.696777 1591.931396,924.839844 1585.314941,947.074341 
	C1581.781982,958.947144 1581.637573,971.069824 1584.085693,983.152527 
	C1591.447510,1019.484863 1634.447632,1035.606445 1663.908203,1013.063904 
	C1665.726807,1011.672363 1667.732544,1009.305481 1667.874146,1007.268921 
	C1668.030518,1005.015747 1666.739136,1001.931702 1665.014648,1000.433960 
	C1661.673340,997.532043 1658.533691,1000.246521 1655.028076,1002.643799 
M573.388184,921.417480 
	C571.665283,915.833740 568.333252,913.532959 563.149109,914.347290 
	C558.270508,915.113647 556.031494,917.995422 556.021423,924.099243 
	C555.973267,953.401428 555.968445,982.703857 556.022095,1012.006042 
	C556.034485,1018.751709 558.841370,1021.926147 564.449280,1022.042480 
	C570.361206,1022.165161 573.620117,1019.003235 573.636719,1012.148743 
	C573.709351,982.183411 573.589600,952.217529 573.388184,921.417480 
M561.294800,889.532776 
	C569.191895,890.508911 573.946594,888.341003 575.669678,882.978577 
	C577.569824,877.065125 575.106689,871.021973 570.049866,869.190613 
	C563.564697,866.841858 556.161133,869.234985 554.053284,874.361267 
	C551.538513,880.477173 554.165283,886.524170 561.294800,889.532776 
z"/>
<path fill="#FF7B04" opacity="1.000000" stroke="none" 
	d="
M1113.984497,792.999878 
	C1111.996582,793.102844 1110.008667,793.295593 1108.020752,793.295898 
	C1017.047302,793.310791 926.073914,793.328186 835.100464,793.303467 
	C743.962341,793.278625 652.824219,793.209900 561.686096,793.160583 
	C559.899353,793.159607 558.112549,793.160400 555.368713,793.160400 
	C556.005493,781.877686 556.075989,771.071167 557.314697,760.400146 
	C561.784668,721.893677 573.804077,685.802795 593.631531,652.468689 
	C620.281372,607.664673 656.366516,572.565125 702.425049,547.883911 
	C736.160583,529.806091 772.057922,519.136108 810.219666,515.937622 
	C867.386047,511.146362 921.062073,522.567688 971.865784,550.574951 
	C1003.635620,568.281860 1029.925537,591.411804 1052.450562,618.962341 
	C1074.387451,645.793701 1090.411743,675.902161 1100.956177,708.811096 
	C1109.707153,736.122803 1113.950073,764.270020 1113.984497,792.999878 
z"/>
<path fill="#FFC020" opacity="1.000000" stroke="none" 
	d="
M1114.451660,793.059326 
	C1113.950073,764.270020 1109.707153,736.122803 1100.956177,708.811096 
	C1090.411743,675.902161 1074.387451,645.793701 1052.450562,618.962341 
	C1029.925537,591.411804 1003.635620,568.281860 972.212891,550.711914 
	C1000.457703,534.612427 1030.691895,523.791565 1062.862793,518.598572 
	C1088.962769,514.385498 1115.127075,513.775452 1141.469971,516.715393 
	C1172.384277,520.165405 1201.884521,528.441528 1229.767212,541.966492 
	C1289.275146,570.831909 1333.429565,615.224487 1361.991089,674.945496 
	C1379.119995,710.761292 1387.668213,748.605225 1388.167725,788.284546 
	C1388.184448,789.611755 1388.169800,790.939331 1388.169800,793.118713 
	C1296.981445,793.118713 1205.950073,793.118713 1114.451660,793.059326 
z"/>
<path fill="#FF7B04" opacity="1.000000" stroke="none" 
	d="
M807.631836,225.601318 
	C870.843811,211.792603 932.157654,247.156525 951.586731,308.267242 
	C967.015686,356.796387 949.329468,411.647034 908.468262,441.991455 
	C844.175903,489.736298 754.219849,465.748840 722.195740,392.320526 
	C700.291748,342.096710 716.811096,280.342285 760.666016,247.541656 
	C774.743408,237.012726 789.996094,229.337753 807.631836,225.601318 
z"/>
<path fill="#FFC020" opacity="1.000000" stroke="none" 
	d="
M987.197876,338.305328 
	C989.296936,308.571991 999.876160,282.880585 1019.936218,261.371185 
	C1038.836182,241.105698 1061.970581,228.167114 1089.452515,224.145859 
	C1134.384399,217.571228 1172.535156,231.272644 1202.345215,265.480957 
	C1222.047607,288.090210 1231.267944,315.044861 1231.348022,345.357544 
	C1231.498413,402.400787 1190.508789,452.991119 1132.604370,464.616913 
	C1067.343262,477.719757 1001.819702,433.729126 989.418274,368.090820 
	C987.609680,358.518463 987.872253,348.554810 987.197876,338.305328 
z"/>
<path fill="#499934" opacity="1.000000" stroke="none" 
	d="
M857.487671,79.477463 
	C882.332886,57.700249 928.337219,37.479706 951.018433,38.348022 
	C950.902893,38.993538 950.988892,39.757126 950.653564,40.205841 
	C939.098755,55.668011 934.812744,73.922981 929.772339,92.093620 
	C920.382935,125.942566 902.443665,154.411819 873.429260,175.101135 
	C859.515503,185.022583 843.343140,188.895996 826.880432,191.869461 
	C823.615173,192.459244 820.376831,193.197128 817.123352,193.853287 
	C813.224121,194.639664 810.869019,193.386841 811.111267,189.058899 
	C813.458984,147.121826 825.776550,109.381615 857.487671,79.477463 
z"/>
<path fill="#040404" opacity="1.000000" stroke="none" 
	d="
M521.274292,938.734253 
	C521.916870,943.423462 522.878174,947.705872 522.915161,951.996277 
	C523.089172,972.154663 523.042053,992.315369 523.001465,1012.475037 
	C522.988037,1019.132568 520.196045,1022.285828 514.506104,1022.445007 
	C508.543945,1022.611816 505.460602,1019.482300 505.415466,1012.542786 
	C505.298553,994.549561 505.403870,976.554993 505.344757,958.561218 
	C505.331635,954.568298 505.335693,950.528748 504.766510,946.592407 
	C502.564362,931.363647 492.021820,924.722717 476.441071,928.525330 
	C465.082520,931.297546 456.905060,940.798035 456.081360,953.951721 
	C455.260101,967.066406 455.535919,980.251038 455.382477,993.405640 
	C455.302795,1000.235535 455.489166,1007.071777 455.269012,1013.895874 
	C455.081818,1019.699951 451.985168,1022.516235 446.464081,1022.467285 
	C441.065643,1022.419434 437.963348,1019.413025 437.930359,1013.606323 
	C437.826294,995.279785 437.915833,976.952148 437.844238,958.625305 
	C437.829987,954.972107 437.574066,951.305725 437.190643,947.670593 
	C435.467194,931.329834 425.596100,925.325378 408.863251,928.634460 
	C396.424011,931.094482 388.342224,942.418396 388.050781,957.423218 
	C387.694916,975.743774 387.941132,994.075439 387.857635,1012.402039 
	C387.829712,1018.536255 385.913635,1021.299194 381.436920,1022.184814 
	C374.559723,1023.545288 370.372406,1020.362732 370.186829,1013.284851 
	C369.999146,1006.125366 370.134491,998.957458 370.134155,991.793213 
	C370.133057,969.134155 370.098053,946.474976 370.156982,923.816101 
	C370.175354,916.748474 373.016296,913.744568 379.104126,913.922363 
	C384.037354,914.066467 386.743988,916.584778 387.189758,921.561829 
	C387.337982,923.216858 387.288483,924.890381 387.308014,926.555725 
	C387.324921,927.994995 387.311523,929.434692 387.720245,931.159729 
	C395.819366,918.875000 407.142822,913.088562 421.487335,913.411865 
	C435.899445,913.736755 446.919006,919.472412 452.062836,934.379272 
	C461.553192,918.210022 475.426849,912.042603 493.053772,913.741028 
	C508.592072,915.238220 517.205505,922.867615 521.274292,938.734253 
z"/>
<path fill="#040404" opacity="1.000000" stroke="none" 
	d="
M665.163940,1061.109009 
	C646.225159,1063.533203 628.558289,1061.243042 612.257996,1051.596191 
	C607.037781,1048.506836 605.667480,1044.640137 608.114868,1040.565430 
	C610.537720,1036.531372 613.965332,1036.036865 619.305359,1039.073853 
	C632.322327,1046.477051 646.183044,1049.618896 661.056763,1047.070923 
	C673.111816,1045.005981 681.203247,1037.050659 682.790649,1024.877808 
	C683.859863,1016.679199 683.716736,1008.322571 684.118103,999.992371 
	C683.100830,999.992371 682.582703,999.863647 682.486694,1000.010681 
	C671.705017,1016.518494 655.827820,1020.822266 637.607361,1017.696838 
	C619.486572,1014.588440 608.104919,1003.152405 602.915405,985.743713 
	C598.034180,969.369446 598.578308,953.059998 606.193909,937.598328 
	C618.034546,913.558838 651.882385,905.451904 673.027771,921.449707 
	C676.753174,924.268188 679.695068,928.122314 683.480225,931.990234 
	C683.480225,928.984436 683.402588,926.253967 683.495483,923.529358 
	C683.727295,916.731689 686.350098,913.896729 692.265869,913.914612 
	C698.143127,913.932373 700.875549,916.865845 700.899414,923.625671 
	C700.965271,942.282471 701.025879,960.940247 700.892212,979.596252 
	C700.786072,994.408203 701.123047,1009.276672 699.946228,1024.014893 
	C698.295471,1044.689697 686.077454,1057.189697 665.163940,1061.109009 
M674.624695,994.075989 
	C685.102234,980.255310 685.925110,964.887512 680.978516,949.065735 
	C676.524902,934.820923 664.871582,927.230225 649.777161,927.578430 
	C635.206970,927.914490 623.796570,936.195312 620.181763,950.474304 
	C618.419128,957.436890 617.755066,965.005737 618.328003,972.161255 
	C619.427246,985.889160 625.182678,997.499268 639.184692,1002.216980 
	C652.012451,1006.539124 664.164001,1004.859497 674.624695,994.075989 
z"/>
<path fill="#040404" opacity="1.000000" stroke="none" 
	d="
M249.056976,906.988281 
	C253.799805,896.144592 258.437256,885.668396 263.033844,875.174377 
	C265.152496,870.337524 268.088806,866.343384 273.890137,866.246460 
	C279.983612,866.144531 282.816315,870.287476 285.038147,875.342285 
	C304.613861,919.878418 324.276062,964.376526 343.911835,1008.886230 
	C344.246887,1009.645752 344.594543,1010.400818 344.896545,1011.173462 
	C346.390259,1014.995178 346.956970,1018.719177 342.902313,1021.374268 
	C339.611176,1023.529297 333.656036,1022.595520 331.018951,1019.424255 
	C329.667206,1017.798645 328.687347,1015.800476 327.819885,1013.846191 
	C323.576416,1004.286316 319.320160,994.728943 315.320312,985.066406 
	C314.321503,982.653564 313.112885,981.864075 310.574066,981.872864 
	C286.259003,981.957397 261.943268,981.978088 237.628555,981.850037 
	C234.787704,981.835083 233.589706,982.832703 232.560745,985.337280 
	C228.523209,995.165283 224.359070,1004.945312 220.020691,1014.644165 
	C217.134415,1021.096680 213.904602,1023.076111 208.681473,1022.296692 
	C204.226196,1021.631836 201.924606,1018.698853 202.617188,1014.245117 
	C202.894196,1012.463867 203.498123,1010.687805 204.226074,1009.029053 
	C219.105301,975.125122 234.024048,941.238525 249.056976,906.988281 
M286.092468,916.401917 
	C282.249817,907.350403 278.407135,898.298889 274.080444,888.107239 
	C262.644592,915.039490 251.723587,940.759338 240.762726,966.572998 
	C263.210052,966.572998 285.053253,966.572998 307.443359,966.572998 
	C300.284790,949.753479 293.337341,933.429993 286.092468,916.401917 
z"/>
<path fill="#040404" opacity="1.000000" stroke="none" 
	d="
M959.916382,914.827759 
	C970.888062,877.629517 1002.647034,862.461670 1038.449341,866.448730 
	C1051.384521,867.889221 1063.462891,871.882568 1073.765137,880.169312 
	C1075.523193,881.583374 1077.840820,883.490295 1078.046875,885.372437 
	C1078.372437,888.343811 1077.875366,891.939331 1076.358887,894.441711 
	C1074.513062,897.487427 1070.893677,897.102905 1067.799683,895.611023 
	C1066.464600,894.967163 1065.267334,894.025513 1064.039307,893.173279 
	C1046.463867,880.977539 1027.370361,879.045227 1007.444397,885.628479 
	C992.580200,890.539368 983.628235,901.674622 979.132812,916.290405 
	C973.616089,934.226562 973.469299,952.450745 978.592285,970.464478 
	C985.507385,994.779907 1004.121338,1007.641479 1029.918945,1006.665955 
	C1043.062500,1006.168945 1055.075806,1002.466797 1065.682861,994.488525 
	C1068.733032,992.194336 1072.589600,990.310303 1075.640137,993.394287 
	C1077.644043,995.420166 1078.727051,999.137390 1078.720825,1002.093994 
	C1078.716919,1004.031616 1076.348633,1006.364136 1074.495850,1007.835388 
	C1058.177856,1020.793213 1039.222290,1024.278809 1019.031860,1022.503235 
	C980.789001,1019.140015 960.636414,991.776123 956.899048,958.768188 
	C955.232971,944.054016 955.787476,929.531128 959.916382,914.827759 
z"/>
<path fill="#060606" opacity="1.000000" stroke="none" 
	d="
M1487.703613,988.999817 
	C1494.855957,1003.777100 1508.471802,1010.618347 1525.985229,1008.657043 
	C1534.727539,1007.677979 1542.764648,1004.951355 1550.264160,1000.288208 
	C1555.659058,996.933655 1561.347534,998.690552 1561.492798,1003.881836 
	C1561.568726,1006.598267 1559.500854,1010.390381 1557.209717,1011.990784 
	C1543.501343,1021.565918 1528.055298,1024.322021 1511.604492,1022.297058 
	C1497.570679,1020.569397 1485.810669,1014.662720 1477.275757,1003.221191 
	C1461.979492,982.715637 1463.811523,947.858948 1480.999634,928.938904 
	C1501.455200,906.422241 1540.386841,908.552124 1555.653198,933.047058 
	C1561.751953,942.832703 1563.661499,953.744568 1563.725586,965.031799 
	C1563.754150,970.054749 1561.162109,971.902649 1554.837646,971.913208 
	C1533.183472,971.949158 1511.529175,971.927429 1489.875000,971.927612 
	C1488.059204,971.927673 1486.243408,971.927612 1483.354370,971.927612 
	C1484.843994,977.873535 1486.193726,983.261353 1487.703613,988.999817 
M1525.499878,960.270264 
	C1533.057495,960.270264 1540.614990,960.270264 1548.160645,960.270264 
	C1547.800293,939.012573 1536.902710,926.749451 1518.777710,926.435059 
	C1499.462891,926.099915 1485.592529,939.655090 1484.673462,960.270264 
	C1497.959961,960.270264 1511.229858,960.270264 1525.499878,960.270264 
z"/>
<path fill="#040404" opacity="1.000000" stroke="none" 
	d="
M1099.921631,980.116211 
	C1097.659180,962.326355 1099.157104,945.654907 1110.206177,931.251038 
	C1122.124512,915.713989 1144.200317,909.324707 1164.928467,915.420715 
	C1185.215576,921.386963 1196.141357,935.998230 1198.703247,956.258728 
	C1199.950684,966.125244 1199.634399,976.721436 1197.419800,986.390442 
	C1191.593872,1011.828308 1168.480957,1026.350830 1142.164795,1022.559631 
	C1118.682739,1019.176636 1104.447876,1005.006409 1099.921631,980.116211 
M1180.659058,981.891113 
	C1182.885986,969.570557 1182.983765,957.343201 1177.890381,945.656433 
	C1173.363647,935.269653 1165.368408,929.105896 1153.926025,927.877136 
	C1142.054688,926.602356 1131.759033,929.549866 1124.449829,939.625427 
	C1114.275879,953.649902 1114.143311,981.877380 1124.070068,996.052429 
	C1124.831055,997.139038 1125.660278,998.193665 1126.569458,999.157959 
	C1135.330200,1008.449524 1146.230225,1010.721252 1158.113281,1007.697937 
	C1170.905640,1004.443420 1177.457397,995.033447 1180.659058,981.891113 
z"/>
<path fill="#040404" opacity="1.000000" stroke="none" 
	d="
M802.254822,1017.312805 
	C789.926086,1023.371887 777.331970,1024.412720 764.466309,1021.484558 
	C744.461243,1016.931580 730.136658,1000.862732 728.249634,979.464355 
	C727.385620,969.666687 727.531250,959.317749 729.736877,949.802429 
	C735.311584,925.752197 755.744629,911.807495 780.633057,913.461914 
	C808.091980,915.287170 826.141907,933.236938 827.685486,961.444946 
	C828.168762,970.276306 827.126099,979.445190 825.172729,988.096252 
	C822.261658,1000.988892 814.319336,1010.724731 802.254822,1017.312805 
M792.611267,1005.299255 
	C799.609985,1001.664246 804.185974,995.875916 806.821411,988.613403 
	C811.268494,976.358276 811.429993,963.813354 808.119995,951.317139 
	C804.018738,935.833679 792.838013,927.428101 777.224060,927.566162 
	C762.092346,927.699890 750.428223,936.336182 747.304565,951.763062 
	C745.493286,960.708740 745.155518,970.327454 746.207520,979.405396 
	C748.972290,1003.262512 769.724854,1014.815002 792.611267,1005.299255 
z"/>
<path fill="#030303" opacity="1.000000" stroke="none" 
	d="
M1317.672485,997.998535 
	C1317.659912,1003.496155 1317.830322,1008.503235 1317.588013,1013.490173 
	C1317.286499,1019.691772 1314.200928,1022.587097 1308.569458,1022.446655 
	C1303.012939,1022.308105 1300.048706,1019.212524 1300.023315,1013.018494 
	C1299.945801,994.191589 1300.115967,975.362854 1299.908203,956.537903 
	C1299.855591,951.766479 1299.165039,946.908020 1298.046875,942.263000 
	C1296.028198,933.877136 1290.060913,929.482971 1281.787598,928.153748 
	C1260.529419,924.738464 1244.536377,937.937378 1244.168091,959.536926 
	C1243.864136,977.359314 1244.137207,995.190979 1244.049316,1013.018005 
	C1244.013916,1020.203064 1240.064331,1023.404419 1233.157593,1022.258301 
	C1229.589233,1021.666199 1227.522217,1019.636169 1226.883301,1016.122864 
	C1226.705078,1015.142700 1226.566162,1014.138672 1226.565552,1013.145447 
	C1226.546631,983.155334 1226.496338,953.165039 1226.585083,923.175171 
	C1226.604492,916.607056 1229.346680,913.888428 1235.083862,913.920593 
	C1240.722046,913.952148 1243.481567,916.851929 1243.749512,923.193359 
	C1243.865234,925.934875 1243.768677,928.685364 1243.768677,932.640259 
	C1254.349121,916.909424 1268.644043,912.207764 1285.491699,913.745117 
	C1304.524414,915.481812 1315.773560,926.351074 1316.869873,945.549438 
	C1317.856445,962.824890 1317.459229,980.179382 1317.672485,997.998535 
z"/>
<path fill="#030303" opacity="1.000000" stroke="none" 
	d="
M1367.693604,995.999634 
	C1367.682251,1002.161194 1367.846802,1007.830078 1367.612671,1013.482544 
	C1367.351074,1019.795349 1364.479614,1022.502075 1358.683838,1022.457947 
	C1353.034912,1022.414917 1350.056763,1019.438965 1350.042358,1013.201660 
	C1349.972778,983.060791 1349.972412,952.919556 1350.050293,922.778748 
	C1350.065674,916.795959 1353.003418,913.928528 1358.458130,913.909546 
	C1364.181030,913.889648 1366.952637,916.791931 1367.114136,923.075745 
	C1367.185547,925.851868 1367.126221,928.631409 1367.126221,931.457825 
	C1367.724731,931.363953 1368.162231,931.419678 1368.261597,931.262207 
	C1380.045776,912.567383 1404.153931,910.398071 1420.281982,916.107727 
	C1431.996460,920.254883 1437.585815,929.562866 1439.844604,941.183105 
	C1440.571045,944.920227 1440.964111,948.779785 1440.986694,952.586426 
	C1441.105469,972.568726 1441.087402,992.552124 1441.048584,1012.534973 
	C1441.035645,1019.157227 1438.173584,1022.379761 1432.533203,1022.463806 
	C1426.569580,1022.552673 1423.586914,1019.443848 1423.546265,1012.484192 
	C1423.442383,994.666565 1423.620361,976.846802 1423.433228,959.030579 
	C1423.377686,953.740540 1422.968384,948.355469 1421.863037,943.197937 
	C1420.142334,935.169556 1414.898071,930.273926 1406.756470,928.432129 
	C1386.328613,923.810669 1368.761963,936.710815 1367.912354,957.538208 
	C1367.396851,970.174011 1367.737549,982.844727 1367.693604,995.999634 
z"/>
<path fill="#050505" opacity="1.000000" stroke="none" 
	d="
M931.931519,985.201782 
	C934.139771,1002.390808 927.208740,1014.450867 911.104370,1019.641907 
	C892.197998,1025.736084 873.659058,1023.875732 855.999451,1014.555847 
	C854.680664,1013.859924 853.415649,1013.025269 852.232483,1012.116028 
	C848.720825,1009.417542 847.677856,1005.200500 849.843018,1002.033997 
	C852.477539,998.181335 855.918945,998.470276 859.458801,1000.605042 
	C868.788086,1006.231445 878.853271,1009.482422 889.762573,1009.308350 
	C894.695190,1009.229614 899.780212,1008.696289 904.495911,1007.331726 
	C911.857605,1005.201477 915.842224,999.490662 915.889893,992.660461 
	C915.935181,986.178467 912.502869,981.448669 904.724609,979.137024 
	C896.452576,976.678589 887.920776,975.102600 879.526855,973.041992 
	C876.144958,972.211670 872.749207,971.326477 869.495911,970.104065 
	C859.872803,966.488281 853.541504,959.864685 852.232727,949.407715 
	C850.879150,938.593811 853.998474,929.291504 862.796753,922.363037 
	C878.880005,909.697876 912.192444,910.671692 927.455139,924.211914 
	C930.558105,926.964722 931.174927,931.001709 928.809143,934.004700 
	C926.142273,937.389954 922.904785,937.323364 919.526489,935.164307 
	C908.393860,928.049438 896.418335,925.082397 883.344177,927.999329 
	C880.796082,928.567932 878.233032,929.591919 875.998474,930.939148 
	C870.713440,934.125366 868.234924,938.967773 868.583008,945.199036 
	C868.940979,951.606689 872.367432,956.103149 878.222534,957.844482 
	C886.647461,960.350037 895.369568,961.838135 903.896912,964.025452 
	C908.544983,965.217590 913.200867,966.616211 917.590454,968.525696 
	C924.793152,971.658936 929.916199,976.910156 931.931519,985.201782 
z"/>
<path fill="#030303" opacity="1.000000" stroke="none" 
	d="
M1750.070557,1008.151733 
	C1752.296265,1016.818481 1750.423096,1020.640076 1742.280762,1021.605774 
	C1735.108765,1022.456482 1727.579102,1022.831360 1720.522827,1021.603577 
	C1704.906250,1018.886169 1695.478516,1006.680603 1695.049927,989.197998 
	C1694.613281,971.385071 1694.879639,953.554871 1694.839478,935.732239 
	C1694.834961,933.745911 1694.838867,931.759521 1694.838867,929.028992 
	C1690.098022,929.028992 1685.517212,929.082947 1680.938354,929.015381 
	C1675.170898,928.930176 1672.657471,926.733826 1672.714111,921.984253 
	C1672.766968,917.551575 1675.164795,915.474854 1680.795288,915.306824 
	C1685.275269,915.173157 1689.762573,915.279968 1694.862549,915.279968 
	C1694.862549,906.719727 1694.765015,898.443176 1694.896851,890.170166 
	C1694.985107,884.643311 1697.859253,881.771118 1703.096802,881.493713 
	C1708.659424,881.199219 1712.046753,884.013062 1712.187378,889.652893 
	C1712.394653,897.970398 1712.240601,906.296936 1712.240601,915.272949 
	C1719.776367,915.272949 1727.053711,915.265137 1734.331055,915.277771 
	C1736.495239,915.281555 1738.675415,915.188477 1740.820190,915.410278 
	C1745.085815,915.851135 1747.525269,918.056641 1747.236328,922.638977 
	C1746.964233,926.954224 1744.380371,928.898621 1740.374390,928.965759 
	C1732.547729,929.097046 1724.717407,929.021057 1716.888672,929.030396 
	C1715.569824,929.031982 1714.250977,929.030640 1713.106201,929.030640 
	C1712.763550,929.526794 1712.448120,929.770203 1712.448975,930.012451 
	C1712.522095,949.324585 1711.960327,968.669617 1712.923462,987.938354 
	C1713.702026,1003.512817 1724.535522,1010.514038 1740.053711,1007.548096 
	C1743.197876,1006.947205 1746.595703,1007.673828 1750.070557,1008.151733 
z"/>
<path fill="#040404" opacity="1.000000" stroke="none" 
	d="
M1655.323242,1002.412842 
	C1658.533691,1000.246521 1661.673340,997.532043 1665.014648,1000.433960 
	C1666.739136,1001.931702 1668.030518,1005.015747 1667.874146,1007.268921 
	C1667.732544,1009.305481 1665.726807,1011.672363 1663.908203,1013.063904 
	C1634.447632,1035.606445 1591.447510,1019.484863 1584.085693,983.152527 
	C1581.637573,971.069824 1581.781982,958.947144 1585.314941,947.074341 
	C1591.931396,924.839844 1612.112061,911.696777 1636.438843,913.480896 
	C1646.936646,914.250793 1656.768433,916.807678 1665.075317,923.694946 
	C1669.005249,926.953369 1669.756714,930.473999 1667.254272,934.098877 
	C1664.782593,937.679138 1661.637451,937.489868 1656.776733,935.076660 
	C1651.064819,932.240662 1645.056641,928.972900 1638.899536,928.247437 
	C1617.308838,925.703491 1602.497192,938.426025 1601.095093,960.197815 
	C1600.650024,967.108337 1600.764282,974.269592 1602.064575,981.039062 
	C1606.598511,1004.641846 1629.452271,1015.533630 1651.118652,1004.852783 
	C1652.459106,1004.192017 1653.726562,1003.383545 1655.323242,1002.412842 
z"/>
<path fill="#060606" opacity="1.000000" stroke="none" 
	d="
M573.463928,921.834717 
	C573.589600,952.217529 573.709351,982.183411 573.636719,1012.148743 
	C573.620117,1019.003235 570.361206,1022.165161 564.449280,1022.042480 
	C558.841370,1021.926147 556.034485,1018.751709 556.022095,1012.006042 
	C555.968445,982.703857 555.973267,953.401428 556.021423,924.099243 
	C556.031494,917.995422 558.270508,915.113647 563.149109,914.347290 
	C568.333252,913.532959 571.665283,915.833740 573.463928,921.834717 
z"/>
<path fill="#070707" opacity="1.000000" stroke="none" 
	d="
M560.913086,889.403625 
	C554.165283,886.524170 551.538513,880.477173 554.053284,874.361267 
	C556.161133,869.234985 563.564697,866.841858 570.049866,869.190613 
	C575.106689,871.021973 577.569824,877.065125 575.669678,882.978577 
	C573.946594,888.341003 569.191895,890.508911 560.913086,889.403625 
z"/>
<path fill="#FDFDFD" opacity="1.000000" stroke="none" 
	d="
M674.372253,994.333374 
	C664.164001,1004.859497 652.012451,1006.539124 639.184692,1002.216980 
	C625.182678,997.499268 619.427246,985.889160 618.328003,972.161255 
	C617.755066,965.005737 618.419128,957.436890 620.181763,950.474304 
	C623.796570,936.195312 635.206970,927.914490 649.777161,927.578430 
	C664.871582,927.230225 676.524902,934.820923 680.978516,949.065735 
	C685.925110,964.887512 685.102234,980.255310 674.372253,994.333374 
z"/>
<path fill="#FCFCFC" opacity="1.000000" stroke="none" 
	d="
M286.241211,916.754272 
	C293.337341,933.429993 300.284790,949.753479 307.443359,966.572998 
	C285.053253,966.572998 263.210052,966.572998 240.762726,966.572998 
	C251.723587,940.759338 262.644592,915.039490 274.080444,888.107239 
	C278.407135,898.298889 282.249817,907.350403 286.241211,916.754272 
z"/>
<path fill="#FDFDFD" opacity="1.000000" stroke="none" 
	d="
M1524.999756,960.270264 
	C1511.229858,960.270264 1497.959961,960.270264 1484.673462,960.270264 
	C1485.592529,939.655090 1499.462891,926.099915 1518.777710,926.435059 
	C1536.902710,926.749451 1547.800293,939.012573 1548.160645,960.270264 
	C1540.614990,960.270264 1533.057495,960.270264 1524.999756,960.270264 
z"/>
<path fill="#FDFDFD" opacity="1.000000" stroke="none" 
	d="
M1180.515747,982.286011 
	C1177.457397,995.033447 1170.905640,1004.443420 1158.113281,1007.697937 
	C1146.230225,1010.721252 1135.330200,1008.449524 1126.569458,999.157959 
	C1125.660278,998.193665 1124.831055,997.139038 1124.070068,996.052429 
	C1114.143311,981.877380 1114.275879,953.649902 1124.449829,939.625427 
	C1131.759033,929.549866 1142.054688,926.602356 1153.926025,927.877136 
	C1165.368408,929.105896 1173.363647,935.269653 1177.890381,945.656433 
	C1182.983765,957.343201 1182.885986,969.570557 1180.515747,982.286011 
z"/>
<path fill="#FDFDFD" opacity="1.000000" stroke="none" 
	d="
M792.293457,1005.509399 
	C769.724854,1014.815002 748.972290,1003.262512 746.207520,979.405396 
	C745.155518,970.327454 745.493286,960.708740 747.304565,951.763062 
	C750.428223,936.336182 762.092346,927.699890 777.224060,927.566162 
	C792.838013,927.428101 804.018738,935.833679 808.119995,951.317139 
	C811.429993,963.813354 811.268494,976.358276 806.821411,988.613403 
	C804.185974,995.875916 799.609985,1001.664246 792.293457,1005.509399 
z"/>
</svg>