<svg version="1.1" id="Layer_1" xmlns="http://www.w3.org/2000/svg" xmlns:xlink="http://www.w3.org/1999/xlink" x="0px" y="0px"
	 width="100%" viewBox="0 0 1920 591" enable-background="new 0 0 1920 591" xml:space="preserve">
<path fill="#FFFFFF" opacity="1.000000" stroke="none" 
	d="
M1361.000000,592.000000 
	C907.333313,592.000000 454.166656,592.000000 1.000000,592.000000 
	C1.000000,395.000000 1.000000,198.000000 1.000000,1.000000 
	C641.000000,1.000000 1281.000000,1.000000 1921.000000,1.000000 
	C1921.000000,198.000000 1921.000000,395.000000 1921.000000,592.000000 
	C1734.500000,592.000000 1548.000000,592.000000 1361.000000,592.000000 
M429.882324,584.927368 
	C499.145355,584.927368 568.408386,584.927368 638.619263,584.927368 
	C637.422302,573.664429 636.943115,562.847473 635.043396,552.286072 
	C620.863953,473.455994 576.444031,418.565979 502.841797,387.498108 
	C470.762115,373.957123 437.036072,370.367188 402.466736,373.792725 
	C373.413391,376.671661 346.079529,384.818359 320.218018,399.398468 
	C317.455688,398.266327 314.559052,397.381500 311.951141,395.965057 
	C270.542297,373.474884 225.788330,369.089630 180.448257,375.632843 
	C122.211708,384.037170 75.705902,413.818512 41.214340,461.640228 
	C20.178865,490.805420 7.694885,523.529358 3.123493,559.167419 
	C2.041143,567.605286 2.215662,576.204346 1.799203,585.000000 
	C4.780015,585.000000 6.437837,585.000000 8.095658,585.000000 
	C145.219193,585.000000 282.342743,585.001648 419.466278,584.990112 
	C422.628204,584.989868 425.790131,584.841736 429.882324,584.927368 
M511.158295,277.558929 
	C517.530396,262.300323 519.442627,246.530518 517.130249,230.128296 
	C508.173645,166.597382 441.377747,131.139786 381.307037,159.493210 
	C350.170746,174.189575 320.053406,218.119202 334.910919,268.372620 
	C350.772614,322.022552 402.082977,342.277466 441.673401,334.357758 
	C474.552551,327.780609 497.214813,308.561584 511.158295,277.558929 
M153.007828,312.507050 
	C174.620316,331.646393 199.738525,339.350952 228.287582,335.044006 
	C284.322876,326.590485 317.267853,274.865540 306.326385,223.032089 
	C294.910889,168.953094 239.693008,137.109177 186.590530,153.714554 
	C141.033646,167.960373 116.495987,209.398071 123.544479,259.877197 
	C126.471016,280.836121 136.907043,297.931488 153.007828,312.507050 
M222.531464,123.106461 
	C229.046646,120.244957 235.967896,118.054817 242.005234,114.403259 
	C265.483643,100.202873 278.439117,78.067444 286.525543,52.726479 
	C291.171661,38.166634 295.107941,23.388233 302.764618,9.990301 
	C302.874725,9.797583 302.657776,9.417942 302.496857,8.686327 
	C298.964142,9.478479 295.443390,10.281209 291.916626,11.056582 
	C270.691589,15.722978 250.901199,23.471453 234.333450,38.047096 
	C208.466446,60.803822 198.921188,90.667358 197.092880,123.866821 
	C196.904861,127.281036 198.651306,128.358826 201.787018,127.669861 
	C208.436859,126.208817 215.083435,124.732864 222.531464,123.106461 
M924.462952,364.483002 
	C925.614502,368.020660 928.522034,369.453857 931.468201,368.076996 
	C933.777039,366.997925 935.395935,364.220703 936.995972,361.966949 
	C937.558655,361.174408 937.191040,359.695648 937.186951,358.530426 
	C937.133972,343.366547 937.114990,328.202332 936.994507,313.038971 
	C936.899109,301.032379 932.145386,291.568634 920.871704,286.559113 
	C909.459412,281.488037 899.078979,284.378998 889.819580,292.164246 
	C887.299316,294.283295 884.996582,296.661163 882.455017,299.050964 
	C877.875244,288.903687 869.735046,285.222626 859.423706,284.945343 
	C849.052490,284.666473 840.850098,288.805573 834.124939,297.634247 
	C833.999573,295.053711 834.037170,293.429932 833.821472,291.840546 
	C833.184509,287.148438 830.555237,284.934906 826.136902,285.087494 
	C821.144348,285.259918 820.867920,288.703094 820.870422,292.431641 
	C820.879211,305.596893 820.859558,318.762177 820.864807,331.927429 
	C820.868835,341.926117 820.809082,351.925934 820.946289,361.922974 
	C821.014465,366.889923 822.999390,368.437561 827.858704,368.001343 
	C832.825867,367.555481 834.000549,364.358704 834.070679,360.019714 
	C834.312866,345.028442 834.257324,330.012115 835.232056,315.065094 
	C835.531067,310.479248 837.870972,305.327209 840.863586,301.769684 
	C846.205017,295.419952 853.839600,294.837799 861.530212,297.167511 
	C868.189392,299.184753 870.609375,304.505371 871.296631,310.879578 
	C871.652771,314.182587 872.026855,317.503021 872.055603,320.818542 
	C872.171326,334.149597 872.183960,347.481873 872.170654,360.813599 
	C872.166748,364.768097 873.151978,367.735229 877.811951,368.010254 
	C882.565247,368.290863 884.979980,366.465576 885.701660,361.682861 
	C885.948547,360.047028 885.896179,358.359253 885.902527,356.694916 
	C885.951843,343.696411 885.959778,330.697723 886.026489,317.699310 
	C886.066895,309.824036 889.355347,303.530731 895.685059,298.917816 
	C905.901428,291.472656 920.717896,297.433655 922.394897,309.775787 
	C923.245056,316.032288 923.715942,322.370361 923.877319,328.683838 
	C924.175232,340.341156 924.118896,352.007568 924.462952,364.483002 
M1027.758179,285.064453 
	C1011.982849,286.086060 1002.702515,295.034424 997.755188,309.444733 
	C994.018921,320.327759 994.833862,331.085083 998.427002,341.745728 
	C1005.905762,363.934601 1030.176880,372.272278 1049.890747,359.496002 
	C1052.740112,357.649292 1055.523804,355.701019 1058.877075,353.435425 
	C1058.877075,359.041412 1059.133301,363.837463 1058.822144,368.596405 
	C1058.227905,377.683289 1050.341187,385.570892 1042.314819,386.623627 
	C1030.780518,388.136536 1020.206909,386.604065 1010.143005,380.732422 
	C1005.186584,377.840668 1000.825684,379.954742 1001.252014,385.122253 
	C1001.426758,387.240204 1003.559509,389.868073 1005.529785,391.056091 
	C1017.160217,398.069092 1030.057007,399.218658 1043.158569,397.625793 
	C1061.939575,395.342499 1071.510742,386.185394 1072.340942,367.115509 
	C1073.433838,342.010956 1072.850220,316.831604 1072.877441,291.684235 
	C1072.881836,287.553711 1070.463013,285.192352 1066.270386,285.128754 
	C1061.941284,285.063080 1059.400024,287.237457 1059.034546,291.657715 
	C1058.884033,293.476379 1058.842041,295.303955 1058.685547,298.423401 
	C1050.268311,287.915527 1040.418823,284.177307 1027.758179,285.064453 
M780.947815,345.613098 
	C784.146118,351.981995 787.181213,358.440674 790.613525,364.680878 
	C792.258728,367.671906 798.036438,368.987823 800.198730,366.602844 
	C801.502686,365.164490 801.120789,361.960022 801.013855,359.570770 
	C800.951294,358.173035 799.952759,356.811920 799.352844,355.444214 
	C785.289429,323.382141 771.237000,291.315216 757.141602,259.267273 
	C755.104431,254.635483 753.820068,249.105942 747.146606,248.996887 
	C740.379028,248.886261 739.093689,254.471024 737.043457,259.079926 
	C722.410461,291.974945 707.839844,324.897644 693.231750,357.803741 
	C691.537109,361.621094 692.036743,365.115143 695.284485,367.658386 
	C697.953674,369.748627 702.980042,367.862244 704.837830,363.930420 
	C707.807190,357.646301 710.442261,351.196350 713.018066,344.736511 
	C715.278259,339.068298 718.303040,336.806458 724.285278,336.835480 
	C739.102844,336.907349 753.920349,336.990295 768.737976,337.040985 
	C777.360352,337.070465 777.360413,337.046326 780.947815,345.613098 
M1290.398682,277.061859 
	C1297.099609,266.419067 1307.257202,261.629486 1319.319702,261.168915 
	C1330.681152,260.735107 1341.403076,263.668549 1350.923462,270.205841 
	C1354.187256,272.447083 1357.294434,273.223450 1360.030151,269.483582 
	C1362.372314,266.281464 1361.632690,262.709473 1358.086914,259.955597 
	C1357.300293,259.344666 1356.427002,258.846527 1355.607422,258.276520 
	C1341.752441,248.638809 1326.331299,247.373505 1310.195557,249.662476 
	C1294.764771,251.851471 1283.519531,259.967041 1275.779175,273.341766 
	C1266.065186,290.126801 1264.996216,307.993683 1268.986206,326.482269 
	C1272.251343,341.612244 1279.754761,353.884277 1293.313721,362.052643 
	C1305.510620,369.400513 1318.844116,368.673828 1332.148438,367.507141 
	C1341.207764,366.712677 1349.739502,363.815399 1357.175049,358.394440 
	C1361.405762,355.309937 1362.730225,350.135254 1360.220825,347.109833 
	C1356.869141,343.068726 1353.547729,345.575714 1349.997559,347.191193 
	C1343.402588,350.192047 1336.850342,353.971619 1329.873169,355.319122 
	C1309.097412,359.331726 1291.264771,349.144135 1285.523804,330.472412 
	C1279.964355,312.391724 1281.130005,294.667480 1290.398682,277.061859 
M1660.478516,344.955719 
	C1667.856201,361.263428 1680.268555,368.799469 1698.381226,368.011353 
	C1700.039429,367.939148 1701.737793,367.900665 1703.365845,368.164825 
	C1713.297241,369.775970 1720.464478,363.826569 1727.835815,358.897797 
	C1729.199219,357.986115 1729.763550,354.207153 1729.046387,352.410278 
	C1728.518433,351.087708 1725.289551,350.250488 1723.283691,350.286499 
	C1721.477417,350.318848 1719.677490,351.793457 1717.909668,352.700226 
	C1709.536865,356.994659 1700.827759,358.878937 1691.400879,357.048889 
	C1678.592407,354.562347 1668.831421,340.527649 1672.571289,329.457672 
	C1675.845825,329.457672 1679.172607,329.473145 1682.499146,329.454987 
	C1696.813599,329.376862 1711.128174,329.305664 1725.442383,329.190063 
	C1728.266235,329.167267 1731.096313,328.613953 1731.210205,325.086151 
	C1731.622314,312.320892 1729.389038,300.413361 1718.512817,292.040924 
	C1698.019043,276.264954 1666.607422,286.564545 1659.570068,311.414093 
	C1656.475342,322.341553 1656.071899,333.377747 1660.478516,344.955719 
M1452.179565,341.632141 
	C1454.797852,331.756226 1454.414307,321.846924 1452.171875,312.004974 
	C1450.365234,304.075012 1445.500854,297.967957 1439.493774,292.765900 
	C1434.158447,288.145477 1428.440430,284.350220 1420.763306,285.727417 
	C1419.502075,285.953705 1418.105469,285.610870 1416.799561,285.375244 
	C1400.139282,282.368896 1382.045044,294.776917 1378.449829,311.927063 
	C1376.230347,322.514435 1375.872314,332.664703 1379.076294,342.818787 
	C1381.927124,351.853760 1386.147217,360.682007 1395.344482,364.503296 
	C1415.311646,372.799194 1442.665527,369.487823 1452.179565,341.632141 
M1134.390381,368.007019 
	C1148.669434,367.975189 1158.622314,361.070526 1165.154053,348.687042 
	C1170.623535,338.317261 1170.756348,327.406311 1168.987793,316.123108 
	C1163.500610,281.113983 1121.975220,278.197662 1105.790771,293.780792 
	C1094.336548,304.809509 1091.571533,318.531525 1093.452148,333.630157 
	C1095.089844,346.780243 1099.649414,358.680450 1112.633667,364.223053 
	C1118.952271,366.920288 1126.459351,366.833832 1134.390381,368.007019 
M1592.944580,299.216217 
	C1595.100586,298.357483 1597.209473,297.346100 1599.420288,296.665466 
	C1611.319824,293.002197 1621.390991,298.872772 1623.488403,311.019409 
	C1624.274170,315.569672 1624.173584,320.301056 1624.188843,324.950806 
	C1624.228394,337.104523 1624.053711,349.258850 1624.082275,361.412689 
	C1624.092529,365.795868 1626.443481,368.219482 1630.919189,368.174713 
	C1634.582153,368.138092 1638.102783,367.819305 1638.064331,362.734192 
	C1637.935669,345.753143 1638.072998,328.766907 1637.686890,311.792236 
	C1637.463745,301.975250 1633.780884,293.729370 1624.802979,288.454834 
	C1613.291382,281.691772 1595.186157,283.998230 1586.047119,293.543640 
	C1584.742554,294.906403 1583.223511,296.063934 1581.030029,297.998871 
	C1581.030029,295.223938 1581.062500,293.618195 1581.024048,292.014130 
	C1580.909790,287.244659 1578.920044,285.157898 1574.467285,285.164978 
	C1570.083740,285.171967 1568.157715,287.595276 1568.159180,291.779236 
	C1568.167358,314.921997 1568.113770,338.065277 1568.260864,361.207214 
	C1568.298462,367.116547 1573.190796,370.287659 1578.086792,367.245117 
	C1580.180420,365.944153 1581.693359,362.144623 1581.772705,359.430847 
	C1582.166138,345.955688 1581.899536,332.462952 1582.055176,318.978546 
	C1582.148926,310.849945 1585.108521,304.068390 1592.944580,299.216217 
M1542.079468,304.542145 
	C1541.341919,302.698730 1540.680664,300.820282 1539.853760,299.017792 
	C1535.275146,289.036774 1527.848022,283.621857 1516.526489,285.137512 
	C1511.344971,285.831238 1506.163330,286.852753 1501.136353,288.272644 
	C1496.897705,289.469849 1492.882446,291.457611 1488.673096,293.133392 
	C1487.813721,291.379089 1487.200439,290.022980 1486.498291,288.714569 
	C1484.729004,285.416748 1481.834839,284.679626 1478.430908,285.372559 
	C1475.000732,286.070862 1474.053711,288.596954 1474.053101,291.700165 
	C1474.049316,315.006500 1474.024048,338.312958 1474.091675,361.619110 
	C1474.101562,365.027313 1475.141846,367.894867 1479.397339,368.048767 
	C1483.520142,368.197845 1486.732056,367.184845 1487.223022,362.414551 
	C1487.460938,360.102905 1487.645020,357.775848 1487.670288,355.453796 
	C1487.810303,342.636932 1487.559326,329.805603 1488.090332,317.006104 
	C1488.629395,304.011383 1498.468262,295.609985 1511.739014,295.992004 
	C1524.184448,296.350250 1529.667725,302.708099 1529.976562,317.140808 
	C1529.994385,317.972961 1530.010498,318.805328 1530.012573,319.637634 
	C1530.047974,333.454895 1530.049438,347.272339 1530.127930,361.089355 
	C1530.166870,367.968475 1534.854126,370.797089 1540.475708,366.821655 
	C1542.425171,365.443054 1543.589844,361.803284 1543.679688,359.147797 
	C1544.045288,348.338867 1544.056030,337.506378 1543.798340,326.692078 
	C1543.628540,319.567352 1542.777344,312.458862 1542.079468,304.542145 
M1190.507324,362.030121 
	C1206.614380,370.230896 1222.979370,371.148071 1239.222290,362.845703 
	C1247.298340,358.717743 1250.419556,351.260376 1249.593140,342.343719 
	C1248.750122,333.248322 1243.363159,328.027527 1234.728394,325.778015 
	C1226.211304,323.559204 1217.707275,321.289581 1209.212036,318.988831 
	C1203.487305,317.438446 1200.870117,313.940155 1200.953491,308.140564 
	C1201.039307,302.186218 1203.970215,298.323273 1209.687622,297.025574 
	C1219.791260,294.732330 1229.482788,295.387451 1238.500244,301.143585 
	C1239.909668,302.043243 1242.158325,302.875000 1243.480469,302.358887 
	C1245.257812,301.665100 1247.439331,299.788727 1247.723022,298.125885 
	C1247.993774,296.538879 1246.467407,294.089142 1245.018921,292.853241 
	C1233.600342,283.110504 1209.313965,282.191833 1196.975464,290.830353 
	C1184.959351,299.243134 1184.855591,317.926727 1197.058594,325.986694 
	C1200.568726,328.305176 1204.818359,329.691589 1208.907349,330.902374 
	C1215.107178,332.738098 1221.472046,334.010895 1227.749756,335.590607 
	C1232.362549,336.751343 1236.185791,338.542450 1236.172607,344.392975 
	C1236.157104,351.255402 1234.505981,354.046051 1227.909912,356.248779 
	C1216.810181,359.955627 1206.270142,357.986389 1196.105103,352.805084 
	C1192.858765,351.150421 1189.027588,348.537079 1186.310669,352.404724 
	C1183.618408,356.237274 1187.340210,359.034851 1190.507324,362.030121 
M1866.367920,368.056458 
	C1867.643921,367.695465 1868.953125,367.423004 1870.189697,366.957306 
	C1874.326904,365.399231 1874.962402,362.119049 1873.963257,358.390686 
	C1872.932251,354.543060 1869.859009,356.001343 1867.353027,356.254395 
	C1866.200928,356.370758 1865.076416,356.761963 1863.924316,356.877563 
	C1852.917603,357.981659 1846.772583,353.246094 1845.388428,342.299011 
	C1844.931641,338.686859 1845.082031,334.989624 1845.070923,331.330933 
	C1845.036621,320.060699 1845.058350,308.790314 1845.058350,296.971436 
	C1847.310547,296.971436 1848.920654,296.980133 1850.530762,296.969849 
	C1855.523315,296.937897 1860.517090,296.952606 1865.508057,296.843018 
	C1868.723389,296.772369 1871.528809,295.129272 1871.126709,291.925293 
	C1870.886230,290.008575 1868.355347,287.839478 1866.332153,286.841583 
	C1864.396606,285.886963 1861.788208,286.179962 1859.471680,286.138794 
	C1854.724487,286.054382 1849.974487,286.113434 1844.974121,286.113434 
	C1844.974121,279.582092 1845.146729,273.605133 1844.924805,267.642853 
	C1844.709717,261.862244 1840.208496,258.542938 1835.525146,261.190369 
	C1833.314941,262.439758 1831.507690,265.987183 1831.198730,268.685883 
	C1830.546265,274.384369 1831.000122,280.209564 1831.000122,286.187408 
	C1827.291016,286.187408 1824.139893,286.066864 1821.001953,286.220306 
	C1817.665283,286.383484 1814.336304,287.245514 1814.245728,291.314606 
	C1814.150879,295.574677 1817.319824,296.825165 1821.009766,296.908417 
	C1824.462769,296.986298 1827.918823,296.925049 1831.723022,296.925049 
	C1831.723022,311.978729 1831.728638,326.578339 1831.717407,341.177948 
	C1831.715454,343.593384 1831.009033,346.207947 1831.699097,348.392181 
	C1836.507935,363.613220 1849.630249,371.171814 1866.367920,368.056458 
M1755.879761,356.612122 
	C1759.749023,361.675873 1764.539062,365.591736 1770.974854,366.413788 
	C1777.723022,367.275726 1784.717529,368.537292 1791.311890,367.589691 
	C1797.299194,366.729340 1803.040771,363.426453 1808.601318,360.625763 
	C1811.535278,359.147980 1812.519653,355.986359 1810.524170,352.897552 
	C1808.482910,349.737823 1805.807861,350.006042 1802.742065,351.751923 
	C1799.730835,353.466644 1796.550171,354.998077 1793.275146,356.114777 
	C1781.755005,360.042603 1771.775879,356.538452 1765.090576,346.438904 
	C1758.162720,335.972809 1758.619385,324.675842 1761.860596,313.306427 
	C1765.187744,301.635773 1773.544678,295.308167 1785.559937,296.241455 
	C1791.113403,296.672821 1796.603760,299.234467 1801.882202,301.413239 
	C1805.249268,302.803131 1808.321045,304.038910 1810.784058,300.644409 
	C1813.246338,297.251007 1810.787231,294.644867 1808.378662,292.513947 
	C1806.785278,291.104309 1804.847412,290.022339 1802.935059,289.045898 
	C1795.439575,285.218964 1787.378784,283.972260 1779.155396,285.129944 
	C1761.864624,287.564087 1744.734863,299.304718 1746.163208,321.329071 
	C1746.367676,324.481323 1746.783447,327.791809 1746.091431,330.796448 
	C1744.336426,338.416534 1748.125610,344.248474 1751.539062,350.264679 
	C1752.684082,352.282928 1754.122437,354.134735 1755.879761,356.612122 
M962.148987,330.499969 
	C962.180603,340.658936 962.153748,350.818604 962.275452,360.976501 
	C962.318237,364.543793 963.280884,367.660309 967.715515,367.942017 
	C971.945190,368.210724 974.979187,365.785828 975.773254,361.438202 
	C975.892151,360.787170 975.922546,360.112213 975.922668,359.448334 
	C975.928040,337.464386 975.977295,315.480194 975.885864,293.496613 
	C975.862671,287.918365 973.667786,285.967957 968.240967,285.953552 
	C963.558777,285.941132 962.206360,287.494232 962.169678,293.526184 
	C962.096802,305.517059 962.148499,317.508636 962.148987,330.499969 
M977.739807,260.118988 
	C977.059082,257.953979 976.863586,255.437347 975.600525,253.694305 
	C972.601990,249.556168 968.336121,250.773407 964.245605,251.837631 
	C960.169983,252.897995 960.013977,256.081604 960.240112,259.335388 
	C960.525208,263.436462 962.566833,266.319855 966.820557,266.910034 
	C971.826660,267.604736 975.625122,265.816010 977.739807,260.118988 
z"/>
<path fill="#FF7B04" opacity="1.000000" stroke="none" 
	d="
M428.952057,584.762573 
	C425.790131,584.841736 422.628204,584.989868 419.466278,584.990112 
	C282.342743,585.001648 145.219193,585.000000 8.095658,585.000000 
	C6.437837,585.000000 4.780015,585.000000 1.799203,585.000000 
	C2.215662,576.204346 2.041143,567.605286 3.123493,559.167419 
	C7.694885,523.529358 20.178865,490.805420 41.214340,461.640228 
	C75.705902,413.818512 122.211708,384.037170 180.448257,375.632843 
	C225.788330,369.089630 270.542297,373.474884 311.951141,395.965057 
	C314.559052,397.381500 317.455688,398.266327 320.651947,399.882751 
	C322.503723,401.479279 323.819092,402.763763 325.354950,403.677826 
	C346.105713,416.027710 364.020020,431.735229 379.399658,450.236084 
	C393.157379,466.785767 403.667328,485.318756 412.184998,505.135345 
	C423.142426,530.628113 426.571167,557.547729 428.952057,584.762573 
z"/>
<path fill="#FFC020" opacity="1.000000" stroke="none" 
	d="
M429.417175,584.844971 
	C426.571167,557.547729 423.142426,530.628113 412.184998,505.135345 
	C403.667328,485.318756 393.157379,466.785767 379.399658,450.236084 
	C364.020020,431.735229 346.105713,416.027710 325.354950,403.677826 
	C323.819092,402.763763 322.503723,401.479279 320.993774,400.079834 
	C346.079529,384.818359 373.413391,376.671661 402.466736,373.792725 
	C437.036072,370.367188 470.762115,373.957123 502.841797,387.498108 
	C576.444031,418.565979 620.863953,473.455994 635.043396,552.286072 
	C636.943115,562.847473 637.422302,573.664429 638.619263,584.927368 
	C568.408386,584.927368 499.145355,584.927368 429.417175,584.844971 
z"/>
<path fill="#FFC022" opacity="1.000000" stroke="none" 
	d="
M511.031555,277.919434 
	C497.214813,308.561584 474.552551,327.780609 441.673401,334.357758 
	C402.082977,342.277466 350.772614,322.022552 334.910919,268.372620 
	C320.053406,218.119202 350.170746,174.189575 381.307037,159.493210 
	C441.377747,131.139786 508.173645,166.597382 517.130249,230.128296 
	C519.442627,246.530518 517.530396,262.300323 511.031555,277.919434 
z"/>
<path fill="#FF7B06" opacity="1.000000" stroke="none" 
	d="
M152.750046,312.261963 
	C136.907043,297.931488 126.471016,280.836121 123.544479,259.877197 
	C116.495987,209.398071 141.033646,167.960373 186.590530,153.714554 
	C239.693008,137.109177 294.910889,168.953094 306.326385,223.032089 
	C317.267853,274.865540 284.322876,326.590485 228.287582,335.044006 
	C199.738525,339.350952 174.620316,331.646393 152.750046,312.261963 
z"/>
<path fill="#4A9A36" opacity="1.000000" stroke="none" 
	d="
M222.131409,123.184746 
	C215.083435,124.732864 208.436859,126.208817 201.787018,127.669861 
	C198.651306,128.358826 196.904861,127.281036 197.092880,123.866821 
	C198.921188,90.667358 208.466446,60.803822 234.333450,38.047096 
	C250.901199,23.471453 270.691589,15.722978 291.916626,11.056582 
	C295.443390,10.281209 298.964142,9.478479 302.496857,8.686327 
	C302.657776,9.417942 302.874725,9.797583 302.764618,9.990301 
	C295.107941,23.388233 291.171661,38.166634 286.525543,52.726479 
	C278.439117,78.067444 265.483643,100.202873 242.005234,114.403259 
	C235.967896,118.054817 229.046646,120.244957 222.131409,123.184746 
z"/>
<path fill="#090909" opacity="1.000000" stroke="none" 
	d="
M924.336548,364.076599 
	C924.118896,352.007568 924.175232,340.341156 923.877319,328.683838 
	C923.715942,322.370361 923.245056,316.032288 922.394897,309.775787 
	C920.717896,297.433655 905.901428,291.472656 895.685059,298.917816 
	C889.355347,303.530731 886.066895,309.824036 886.026489,317.699310 
	C885.959778,330.697723 885.951843,343.696411 885.902527,356.694916 
	C885.896179,358.359253 885.948547,360.047028 885.701660,361.682861 
	C884.979980,366.465576 882.565247,368.290863 877.811951,368.010254 
	C873.151978,367.735229 872.166748,364.768097 872.170654,360.813599 
	C872.183960,347.481873 872.171326,334.149597 872.055603,320.818542 
	C872.026855,317.503021 871.652771,314.182587 871.296631,310.879578 
	C870.609375,304.505371 868.189392,299.184753 861.530212,297.167511 
	C853.839600,294.837799 846.205017,295.419952 840.863586,301.769684 
	C837.870972,305.327209 835.531067,310.479248 835.232056,315.065094 
	C834.257324,330.012115 834.312866,345.028442 834.070679,360.019714 
	C834.000549,364.358704 832.825867,367.555481 827.858704,368.001343 
	C822.999390,368.437561 821.014465,366.889923 820.946289,361.922974 
	C820.809082,351.925934 820.868835,341.926117 820.864807,331.927429 
	C820.859558,318.762177 820.879211,305.596893 820.870422,292.431641 
	C820.867920,288.703094 821.144348,285.259918 826.136902,285.087494 
	C830.555237,284.934906 833.184509,287.148438 833.821472,291.840546 
	C834.037170,293.429932 833.999573,295.053711 834.124939,297.634247 
	C840.850098,288.805573 849.052490,284.666473 859.423706,284.945343 
	C869.735046,285.222626 877.875244,288.903687 882.455017,299.050964 
	C884.996582,296.661163 887.299316,294.283295 889.819580,292.164246 
	C899.078979,284.378998 909.459412,281.488037 920.871704,286.559113 
	C932.145386,291.568634 936.899109,301.032379 936.994507,313.038971 
	C937.114990,328.202332 937.133972,343.366547 937.186951,358.530426 
	C937.191040,359.695648 937.558655,361.174408 936.995972,361.966949 
	C935.395935,364.220703 933.777039,366.997925 931.468201,368.076996 
	C928.522034,369.453857 925.614502,368.020660 924.336548,364.076599 
z"/>
<path fill="#0A0A0A" opacity="1.000000" stroke="none" 
	d="
M1028.222168,285.040100 
	C1040.418823,284.177307 1050.268311,287.915527 1058.685547,298.423401 
	C1058.842041,295.303955 1058.884033,293.476379 1059.034546,291.657715 
	C1059.400024,287.237457 1061.941284,285.063080 1066.270386,285.128754 
	C1070.463013,285.192352 1072.881836,287.553711 1072.877441,291.684235 
	C1072.850220,316.831604 1073.433838,342.010956 1072.340942,367.115509 
	C1071.510742,386.185394 1061.939575,395.342499 1043.158569,397.625793 
	C1030.057007,399.218658 1017.160217,398.069092 1005.529785,391.056091 
	C1003.559509,389.868073 1001.426758,387.240204 1001.252014,385.122253 
	C1000.825684,379.954742 1005.186584,377.840668 1010.143005,380.732422 
	C1020.206909,386.604065 1030.780518,388.136536 1042.314819,386.623627 
	C1050.341187,385.570892 1058.227905,377.683289 1058.822144,368.596405 
	C1059.133301,363.837463 1058.877075,359.041412 1058.877075,353.435425 
	C1055.523804,355.701019 1052.740112,357.649292 1049.890747,359.496002 
	C1030.176880,372.272278 1005.905762,363.934601 998.427002,341.745728 
	C994.833862,331.085083 994.018921,320.327759 997.755188,309.444733 
	C1002.702515,295.034424 1011.982849,286.086060 1028.222168,285.040100 
M1010.445557,317.190460 
	C1010.616333,323.131134 1010.243225,329.149384 1011.076721,334.995575 
	C1012.584351,345.570679 1020.227173,352.861359 1029.918579,353.951050 
	C1043.183716,355.442596 1053.639282,350.707031 1056.822754,339.615631 
	C1059.034546,331.909332 1059.558228,323.216187 1058.619629,315.224243 
	C1057.169556,302.877258 1046.271851,295.102753 1033.818115,295.631714 
	C1020.558411,296.194855 1012.517090,303.408813 1010.445557,317.190460 
z"/>
<path fill="#090909" opacity="1.000000" stroke="none" 
	d="
M780.812622,345.253113 
	C777.360413,337.046326 777.360352,337.070465 768.737976,337.040985 
	C753.920349,336.990295 739.102844,336.907349 724.285278,336.835480 
	C718.303040,336.806458 715.278259,339.068298 713.018066,344.736511 
	C710.442261,351.196350 707.807190,357.646301 704.837830,363.930420 
	C702.980042,367.862244 697.953674,369.748627 695.284485,367.658386 
	C692.036743,365.115143 691.537109,361.621094 693.231750,357.803741 
	C707.839844,324.897644 722.410461,291.974945 737.043457,259.079926 
	C739.093689,254.471024 740.379028,248.886261 747.146606,248.996887 
	C753.820068,249.105942 755.104431,254.635483 757.141602,259.267273 
	C771.237000,291.315216 785.289429,323.382141 799.352844,355.444214 
	C799.952759,356.811920 800.951294,358.173035 801.013855,359.570770 
	C801.120789,361.960022 801.502686,365.164490 800.198730,366.602844 
	C798.036438,368.987823 792.258728,367.671906 790.613525,364.680878 
	C787.181213,358.440674 784.146118,351.981995 780.812622,345.253113 
M724.051453,325.956207 
	C740.239075,325.956207 756.426697,325.956207 773.167664,325.956207 
	C764.468750,305.475952 756.093994,285.758820 747.682617,265.955597 
	C747.217651,266.360840 746.852600,266.528656 746.735352,266.802551 
	C738.615540,285.777100 730.503845,304.755188 722.474121,323.767944 
	C722.249634,324.299500 722.920715,325.209259 724.051453,325.956207 
z"/>
<path fill="#0A0A0A" opacity="1.000000" stroke="none" 
	d="
M1290.221558,277.389801 
	C1281.130005,294.667480 1279.964355,312.391724 1285.523804,330.472412 
	C1291.264771,349.144135 1309.097412,359.331726 1329.873169,355.319122 
	C1336.850342,353.971619 1343.402588,350.192047 1349.997559,347.191193 
	C1353.547729,345.575714 1356.869141,343.068726 1360.220825,347.109833 
	C1362.730225,350.135254 1361.405762,355.309937 1357.175049,358.394440 
	C1349.739502,363.815399 1341.207764,366.712677 1332.148438,367.507141 
	C1318.844116,368.673828 1305.510620,369.400513 1293.313721,362.052643 
	C1279.754761,353.884277 1272.251343,341.612244 1268.986206,326.482269 
	C1264.996216,307.993683 1266.065186,290.126801 1275.779175,273.341766 
	C1283.519531,259.967041 1294.764771,251.851471 1310.195557,249.662476 
	C1326.331299,247.373505 1341.752441,248.638809 1355.607422,258.276520 
	C1356.427002,258.846527 1357.300293,259.344666 1358.086914,259.955597 
	C1361.632690,262.709473 1362.372314,266.281464 1360.030151,269.483582 
	C1357.294434,273.223450 1354.187256,272.447083 1350.923462,270.205841 
	C1341.403076,263.668549 1330.681152,260.735107 1319.319702,261.168915 
	C1307.257202,261.629486 1297.099609,266.419067 1290.221558,277.389801 
z"/>
<path fill="#090909" opacity="1.000000" stroke="none" 
	d="
M1660.309570,344.606506 
	C1656.071899,333.377747 1656.475342,322.341553 1659.570068,311.414093 
	C1666.607422,286.564545 1698.019043,276.264954 1718.512817,292.040924 
	C1729.389038,300.413361 1731.622314,312.320892 1731.210205,325.086151 
	C1731.096313,328.613953 1728.266235,329.167267 1725.442383,329.190063 
	C1711.128174,329.305664 1696.813599,329.376862 1682.499146,329.454987 
	C1679.172607,329.473145 1675.845825,329.457672 1672.571289,329.457672 
	C1668.831421,340.527649 1678.592407,354.562347 1691.400879,357.048889 
	C1700.827759,358.878937 1709.536865,356.994659 1717.909668,352.700226 
	C1719.677490,351.793457 1721.477417,350.318848 1723.283691,350.286499 
	C1725.289551,350.250488 1728.518433,351.087708 1729.046387,352.410278 
	C1729.763550,354.207153 1729.199219,357.986115 1727.835815,358.897797 
	C1720.464478,363.826569 1713.297241,369.775970 1703.365845,368.164825 
	C1701.737793,367.900665 1700.039429,367.939148 1698.381226,368.011353 
	C1680.268555,368.799469 1667.856201,361.263428 1660.309570,344.606506 
M1676.779663,320.978546 
	C1691.137085,320.978546 1705.494507,320.978546 1719.821533,320.978546 
	C1720.205688,305.109406 1711.703735,295.200623 1698.107056,294.915344 
	C1682.228638,294.582214 1671.768433,304.601532 1671.547119,320.748657 
	C1672.972046,320.824677 1674.414429,320.901611 1676.779663,320.978546 
z"/>
<path fill="#0B0B0B" opacity="1.000000" stroke="none" 
	d="
M1452.089844,342.024048 
	C1442.665527,369.487823 1415.311646,372.799194 1395.344482,364.503296 
	C1386.147217,360.682007 1381.927124,351.853760 1379.076294,342.818787 
	C1375.872314,332.664703 1376.230347,322.514435 1378.449829,311.927063 
	C1382.045044,294.776917 1400.139282,282.368896 1416.799561,285.375244 
	C1418.105469,285.610870 1419.502075,285.953705 1420.763306,285.727417 
	C1428.440430,284.350220 1434.158447,288.145477 1439.493774,292.765900 
	C1445.500854,297.967957 1450.365234,304.075012 1452.171875,312.004974 
	C1454.414307,321.846924 1454.797852,331.756226 1452.089844,342.024048 
M1420.463379,357.127625 
	C1427.692627,355.987671 1432.980469,352.157562 1436.148071,345.565033 
	C1442.101440,333.174286 1442.171387,320.517639 1436.571289,308.144714 
	C1432.436890,299.010010 1424.459473,295.450684 1414.632812,295.709259 
	C1404.760864,295.969055 1397.506226,300.127014 1393.665771,309.538513 
	C1390.118530,318.231140 1389.257324,327.170654 1391.243896,336.333313 
	C1394.620972,351.908905 1405.330444,359.793060 1420.463379,357.127625 
z"/>
<path fill="#0A0A0A" opacity="1.000000" stroke="none" 
	d="
M1133.909424,368.007263 
	C1126.459351,366.833832 1118.952271,366.920288 1112.633667,364.223053 
	C1099.649414,358.680450 1095.089844,346.780243 1093.452148,333.630157 
	C1091.571533,318.531525 1094.336548,304.809509 1105.790771,293.780792 
	C1121.975220,278.197662 1163.500610,281.113983 1168.987793,316.123108 
	C1170.756348,327.406311 1170.623535,338.317261 1165.154053,348.687042 
	C1158.622314,361.070526 1148.669434,367.975189 1133.909424,368.007263 
M1109.981934,308.741547 
	C1106.808594,317.719391 1106.831909,326.865326 1107.907227,336.230072 
	C1109.265625,348.060089 1115.533936,355.149292 1127.832642,357.645386 
	C1137.503296,359.608124 1148.005005,354.398254 1152.688232,345.073700 
	C1157.524658,335.443573 1157.653687,325.414673 1155.255371,315.046478 
	C1152.945801,305.062286 1147.554565,298.093475 1137.300659,296.145508 
	C1124.938232,293.796967 1116.203857,297.903900 1109.981934,308.741547 
z"/>
<path fill="#0F0F0F" opacity="1.000000" stroke="none" 
	d="
M1592.636719,299.427795 
	C1585.108521,304.068390 1582.148926,310.849945 1582.055176,318.978546 
	C1581.899536,332.462952 1582.166138,345.955688 1581.772705,359.430847 
	C1581.693359,362.144623 1580.180420,365.944153 1578.086792,367.245117 
	C1573.190796,370.287659 1568.298462,367.116547 1568.260864,361.207214 
	C1568.113770,338.065277 1568.167358,314.921997 1568.159180,291.779236 
	C1568.157715,287.595276 1570.083740,285.171967 1574.467285,285.164978 
	C1578.920044,285.157898 1580.909790,287.244659 1581.024048,292.014130 
	C1581.062500,293.618195 1581.030029,295.223938 1581.030029,297.998871 
	C1583.223511,296.063934 1584.742554,294.906403 1586.047119,293.543640 
	C1595.186157,283.998230 1613.291382,281.691772 1624.802979,288.454834 
	C1633.780884,293.729370 1637.463745,301.975250 1637.686890,311.792236 
	C1638.072998,328.766907 1637.935669,345.753143 1638.064331,362.734192 
	C1638.102783,367.819305 1634.582153,368.138092 1630.919189,368.174713 
	C1626.443481,368.219482 1624.092529,365.795868 1624.082275,361.412689 
	C1624.053711,349.258850 1624.228394,337.104523 1624.188843,324.950806 
	C1624.173584,320.301056 1624.274170,315.569672 1623.488403,311.019409 
	C1621.390991,298.872772 1611.319824,293.002197 1599.420288,296.665466 
	C1597.209473,297.346100 1595.100586,298.357483 1592.636719,299.427795 
z"/>
<path fill="#0F0F0F" opacity="1.000000" stroke="none" 
	d="
M1542.155396,304.942627 
	C1542.777344,312.458862 1543.628540,319.567352 1543.798340,326.692078 
	C1544.056030,337.506378 1544.045288,348.338867 1543.679688,359.147797 
	C1543.589844,361.803284 1542.425171,365.443054 1540.475708,366.821655 
	C1534.854126,370.797089 1530.166870,367.968475 1530.127930,361.089355 
	C1530.049438,347.272339 1530.047974,333.454895 1530.012573,319.637634 
	C1530.010498,318.805328 1529.994385,317.972961 1529.976562,317.140808 
	C1529.667725,302.708099 1524.184448,296.350250 1511.739014,295.992004 
	C1498.468262,295.609985 1488.629395,304.011383 1488.090332,317.006104 
	C1487.559326,329.805603 1487.810303,342.636932 1487.670288,355.453796 
	C1487.645020,357.775848 1487.460938,360.102905 1487.223022,362.414551 
	C1486.732056,367.184845 1483.520142,368.197845 1479.397339,368.048767 
	C1475.141846,367.894867 1474.101562,365.027313 1474.091675,361.619110 
	C1474.024048,338.312958 1474.049316,315.006500 1474.053101,291.700165 
	C1474.053711,288.596954 1475.000732,286.070862 1478.430908,285.372559 
	C1481.834839,284.679626 1484.729004,285.416748 1486.498291,288.714569 
	C1487.200439,290.022980 1487.813721,291.379089 1488.673096,293.133392 
	C1492.882446,291.457611 1496.897705,289.469849 1501.136353,288.272644 
	C1506.163330,286.852753 1511.344971,285.831238 1516.526489,285.137512 
	C1527.848022,283.621857 1535.275146,289.036774 1539.853760,299.017792 
	C1540.680664,300.820282 1541.341919,302.698730 1542.155396,304.942627 
z"/>
<path fill="#0C0C0C" opacity="1.000000" stroke="none" 
	d="
M1190.214355,361.818787 
	C1187.340210,359.034851 1183.618408,356.237274 1186.310669,352.404724 
	C1189.027588,348.537079 1192.858765,351.150421 1196.105103,352.805084 
	C1206.270142,357.986389 1216.810181,359.955627 1227.909912,356.248779 
	C1234.505981,354.046051 1236.157104,351.255402 1236.172607,344.392975 
	C1236.185791,338.542450 1232.362549,336.751343 1227.749756,335.590607 
	C1221.472046,334.010895 1215.107178,332.738098 1208.907349,330.902374 
	C1204.818359,329.691589 1200.568726,328.305176 1197.058594,325.986694 
	C1184.855591,317.926727 1184.959351,299.243134 1196.975464,290.830353 
	C1209.313965,282.191833 1233.600342,283.110504 1245.018921,292.853241 
	C1246.467407,294.089142 1247.993774,296.538879 1247.723022,298.125885 
	C1247.439331,299.788727 1245.257812,301.665100 1243.480469,302.358887 
	C1242.158325,302.875000 1239.909668,302.043243 1238.500244,301.143585 
	C1229.482788,295.387451 1219.791260,294.732330 1209.687622,297.025574 
	C1203.970215,298.323273 1201.039307,302.186218 1200.953491,308.140564 
	C1200.870117,313.940155 1203.487305,317.438446 1209.212036,318.988831 
	C1217.707275,321.289581 1226.211304,323.559204 1234.728394,325.778015 
	C1243.363159,328.027527 1248.750122,333.248322 1249.593140,342.343719 
	C1250.419556,351.260376 1247.298340,358.717743 1239.222290,362.845703 
	C1222.979370,371.148071 1206.614380,370.230896 1190.214355,361.818787 
z"/>
<path fill="#090909" opacity="1.000000" stroke="none" 
	d="
M1865.952393,368.120178 
	C1849.630249,371.171814 1836.507935,363.613220 1831.699097,348.392181 
	C1831.009033,346.207947 1831.715454,343.593384 1831.717407,341.177948 
	C1831.728638,326.578339 1831.723022,311.978729 1831.723022,296.925049 
	C1827.918823,296.925049 1824.462769,296.986298 1821.009766,296.908417 
	C1817.319824,296.825165 1814.150879,295.574677 1814.245728,291.314606 
	C1814.336304,287.245514 1817.665283,286.383484 1821.001953,286.220306 
	C1824.139893,286.066864 1827.291016,286.187408 1831.000122,286.187408 
	C1831.000122,280.209564 1830.546265,274.384369 1831.198730,268.685883 
	C1831.507690,265.987183 1833.314941,262.439758 1835.525146,261.190369 
	C1840.208496,258.542938 1844.709717,261.862244 1844.924805,267.642853 
	C1845.146729,273.605133 1844.974121,279.582092 1844.974121,286.113434 
	C1849.974487,286.113434 1854.724487,286.054382 1859.471680,286.138794 
	C1861.788208,286.179962 1864.396606,285.886963 1866.332153,286.841583 
	C1868.355347,287.839478 1870.886230,290.008575 1871.126709,291.925293 
	C1871.528809,295.129272 1868.723389,296.772369 1865.508057,296.843018 
	C1860.517090,296.952606 1855.523315,296.937897 1850.530762,296.969849 
	C1848.920654,296.980133 1847.310547,296.971436 1845.058350,296.971436 
	C1845.058350,308.790314 1845.036621,320.060699 1845.070923,331.330933 
	C1845.082031,334.989624 1844.931641,338.686859 1845.388428,342.299011 
	C1846.772583,353.246094 1852.917603,357.981659 1863.924316,356.877563 
	C1865.076416,356.761963 1866.200928,356.370758 1867.353027,356.254395 
	C1869.859009,356.001343 1872.932251,354.543060 1873.963257,358.390686 
	C1874.962402,362.119049 1874.326904,365.399231 1870.189697,366.957306 
	C1868.953125,367.423004 1867.643921,367.695465 1865.952393,368.120178 
z"/>
<path fill="#0D0D0D" opacity="1.000000" stroke="none" 
	d="
M1755.653320,356.337341 
	C1754.122437,354.134735 1752.684082,352.282928 1751.539062,350.264679 
	C1748.125610,344.248474 1744.336426,338.416534 1746.091431,330.796448 
	C1746.783447,327.791809 1746.367676,324.481323 1746.163208,321.329071 
	C1744.734863,299.304718 1761.864624,287.564087 1779.155396,285.129944 
	C1787.378784,283.972260 1795.439575,285.218964 1802.935059,289.045898 
	C1804.847412,290.022339 1806.785278,291.104309 1808.378662,292.513947 
	C1810.787231,294.644867 1813.246338,297.251007 1810.784058,300.644409 
	C1808.321045,304.038910 1805.249268,302.803131 1801.882202,301.413239 
	C1796.603760,299.234467 1791.113403,296.672821 1785.559937,296.241455 
	C1773.544678,295.308167 1765.187744,301.635773 1761.860596,313.306427 
	C1758.619385,324.675842 1758.162720,335.972809 1765.090576,346.438904 
	C1771.775879,356.538452 1781.755005,360.042603 1793.275146,356.114777 
	C1796.550171,354.998077 1799.730835,353.466644 1802.742065,351.751923 
	C1805.807861,350.006042 1808.482910,349.737823 1810.524170,352.897552 
	C1812.519653,355.986359 1811.535278,359.147980 1808.601318,360.625763 
	C1803.040771,363.426453 1797.299194,366.729340 1791.311890,367.589691 
	C1784.717529,368.537292 1777.723022,367.275726 1770.974854,366.413788 
	C1764.539062,365.591736 1759.749023,361.675873 1755.653320,356.337341 
z"/>
<path fill="#121212" opacity="1.000000" stroke="none" 
	d="
M962.148865,329.999939 
	C962.148499,317.508636 962.096802,305.517059 962.169678,293.526184 
	C962.206360,287.494232 963.558777,285.941132 968.240967,285.953552 
	C973.667786,285.967957 975.862671,287.918365 975.885864,293.496613 
	C975.977295,315.480194 975.928040,337.464386 975.922668,359.448334 
	C975.922546,360.112213 975.892151,360.787170 975.773254,361.438202 
	C974.979187,365.785828 971.945190,368.210724 967.715515,367.942017 
	C963.280884,367.660309 962.318237,364.543793 962.275452,360.976501 
	C962.153748,350.818604 962.180603,340.658936 962.148865,329.999939 
z"/>
<path fill="#121212" opacity="1.000000" stroke="none" 
	d="
M977.629395,260.482239 
	C975.625122,265.816010 971.826660,267.604736 966.820557,266.910034 
	C962.566833,266.319855 960.525208,263.436462 960.240112,259.335388 
	C960.013977,256.081604 960.169983,252.897995 964.245605,251.837631 
	C968.336121,250.773407 972.601990,249.556168 975.600525,253.694305 
	C976.863586,255.437347 977.059082,257.953979 977.629395,260.482239 
z"/>
<path fill="#FBFBFB" opacity="1.000000" stroke="none" 
	d="
M1010.581543,316.772949 
	C1012.517090,303.408813 1020.558411,296.194855 1033.818115,295.631714 
	C1046.271851,295.102753 1057.169556,302.877258 1058.619629,315.224243 
	C1059.558228,323.216187 1059.034546,331.909332 1056.822754,339.615631 
	C1053.639282,350.707031 1043.183716,355.442596 1029.918579,353.951050 
	C1020.227173,352.861359 1012.584351,345.570679 1011.076721,334.995575 
	C1010.243225,329.149384 1010.616333,323.131134 1010.581543,316.772949 
z"/>
<path fill="#F7F7F7" opacity="1.000000" stroke="none" 
	d="
M723.612793,325.949402 
	C722.920715,325.209259 722.249634,324.299500 722.474121,323.767944 
	C730.503845,304.755188 738.615540,285.777100 746.735352,266.802551 
	C746.852600,266.528656 747.217651,266.360840 747.682617,265.955597 
	C756.093994,285.758820 764.468750,305.475952 773.167664,325.956207 
	C756.426697,325.956207 740.239075,325.956207 723.612793,325.949402 
z"/>
<path fill="#F6F6F6" opacity="1.000000" stroke="none" 
	d="
M1676.318359,320.978546 
	C1674.414429,320.901611 1672.972046,320.824677 1671.547119,320.748657 
	C1671.768433,304.601532 1682.228638,294.582214 1698.107056,294.915344 
	C1711.703735,295.200623 1720.205688,305.109406 1719.821533,320.978546 
	C1705.494507,320.978546 1691.137085,320.978546 1676.318359,320.978546 
z"/>
<path fill="#FBFBFB" opacity="1.000000" stroke="none" 
	d="
M1420.059204,357.243713 
	C1405.330444,359.793060 1394.620972,351.908905 1391.243896,336.333313 
	C1389.257324,327.170654 1390.118530,318.231140 1393.665771,309.538513 
	C1397.506226,300.127014 1404.760864,295.969055 1414.632812,295.709259 
	C1424.459473,295.450684 1432.436890,299.010010 1436.571289,308.144714 
	C1442.171387,320.517639 1442.101440,333.174286 1436.148071,345.565033 
	C1432.980469,352.157562 1427.692627,355.987671 1420.059204,357.243713 
z"/>
<path fill="#FBFBFB" opacity="1.000000" stroke="none" 
	d="
M1110.101929,308.376587 
	C1116.203857,297.903900 1124.938232,293.796967 1137.300659,296.145508 
	C1147.554565,298.093475 1152.945801,305.062286 1155.255371,315.046478 
	C1157.653687,325.414673 1157.524658,335.443573 1152.688232,345.073700 
	C1148.005005,354.398254 1137.503296,359.608124 1127.832642,357.645386 
	C1115.533936,355.149292 1109.265625,348.060089 1107.907227,336.230072 
	C1106.831909,326.865326 1106.808594,317.719391 1110.101929,308.376587 
z"/>
</svg>