<?xml version="1.0" standalone="no"?><svg xmlns="http://www.w3.org/2000/svg" viewBox="0 0 1440 320"><path fill="#F0C674" fill-opacity="1" d="M0,256L40,234.7C80,213,160,171,240,170.7C320,171,400,213,480,229.3C560,245,640,235,720,229.3C800,224,880,224,960,240C1040,256,1120,288,1200,282.7C1280,277,1360,235,1400,213.3L1440,192L1440,320L1400,320C1360,320,1280,320,1200,320C1120,320,1040,320,960,320C880,320,800,320,720,320C640,320,560,320,480,320C400,320,320,320,240,320C160,320,80,320,40,320L0,320Z"></path></svg>